<mxfile host="app.diagrams.net" modified="2023-08-07T05:25:43.624Z" agent="Mozilla/5.0 (Windows NT 10.0; Win64; x64) AppleWebKit/537.36 (KHTML, like Gecko) Chrome/115.0.0.0 Safari/537.36 Edg/115.0.1901.188" etag="kuQo2Vr-OBzPcEJ5_G7w" version="21.6.6" type="device">
  <diagram name="Page-1" id="a12sAJ9ZTbU6qOKNDu2-">
    <mxGraphModel dx="1583" dy="1508" grid="1" gridSize="10" guides="1" tooltips="1" connect="1" arrows="1" fold="1" page="1" pageScale="1" pageWidth="850" pageHeight="1100" math="0" shadow="0">
      <root>
        <mxCell id="0" />
        <mxCell id="1" parent="0" />
        <mxCell id="O-xxoR6y4JepeyC2fcWW-470" value="&lt;font style=&quot;font-size: 21px;&quot;&gt;Entity Relationship Diagram&lt;/font&gt;" style="swimlane;whiteSpace=wrap;html=1;startSize=50;strokeWidth=3;" parent="1" vertex="1">
          <mxGeometry x="-640" y="-970" width="710" height="460" as="geometry" />
        </mxCell>
        <mxCell id="O-xxoR6y4JepeyC2fcWW-471" value="" style="group" parent="O-xxoR6y4JepeyC2fcWW-470" vertex="1" connectable="0">
          <mxGeometry x="90" y="80" width="460" height="300" as="geometry" />
        </mxCell>
        <mxCell id="gx5Wb-y74BsaOAA6WoiS-1" value="accounts" style="shape=table;startSize=30;container=1;collapsible=1;childLayout=tableLayout;fixedRows=1;rowLines=0;fontStyle=1;align=center;resizeLast=1;html=1;" parent="O-xxoR6y4JepeyC2fcWW-471" vertex="1">
          <mxGeometry width="180" height="300" as="geometry" />
        </mxCell>
        <mxCell id="gx5Wb-y74BsaOAA6WoiS-2" value="" style="shape=tableRow;horizontal=0;startSize=0;swimlaneHead=0;swimlaneBody=0;fillColor=none;collapsible=0;dropTarget=0;points=[[0,0.5],[1,0.5]];portConstraint=eastwest;top=0;left=0;right=0;bottom=1;" parent="gx5Wb-y74BsaOAA6WoiS-1" vertex="1">
          <mxGeometry y="30" width="180" height="30" as="geometry" />
        </mxCell>
        <mxCell id="gx5Wb-y74BsaOAA6WoiS-3" value="PK" style="shape=partialRectangle;connectable=0;fillColor=none;top=0;left=0;bottom=0;right=0;fontStyle=1;overflow=hidden;whiteSpace=wrap;html=1;" parent="gx5Wb-y74BsaOAA6WoiS-2" vertex="1">
          <mxGeometry width="30" height="30" as="geometry">
            <mxRectangle width="30" height="30" as="alternateBounds" />
          </mxGeometry>
        </mxCell>
        <mxCell id="gx5Wb-y74BsaOAA6WoiS-4" value="id" style="shape=partialRectangle;connectable=0;fillColor=none;top=0;left=0;bottom=0;right=0;align=left;spacingLeft=6;fontStyle=5;overflow=hidden;whiteSpace=wrap;html=1;" parent="gx5Wb-y74BsaOAA6WoiS-2" vertex="1">
          <mxGeometry x="30" width="150" height="30" as="geometry">
            <mxRectangle width="150" height="30" as="alternateBounds" />
          </mxGeometry>
        </mxCell>
        <mxCell id="gx5Wb-y74BsaOAA6WoiS-5" value="" style="shape=tableRow;horizontal=0;startSize=0;swimlaneHead=0;swimlaneBody=0;fillColor=none;collapsible=0;dropTarget=0;points=[[0,0.5],[1,0.5]];portConstraint=eastwest;top=0;left=0;right=0;bottom=0;" parent="gx5Wb-y74BsaOAA6WoiS-1" vertex="1">
          <mxGeometry y="60" width="180" height="30" as="geometry" />
        </mxCell>
        <mxCell id="gx5Wb-y74BsaOAA6WoiS-6" value="" style="shape=partialRectangle;connectable=0;fillColor=none;top=0;left=0;bottom=0;right=0;editable=1;overflow=hidden;whiteSpace=wrap;html=1;" parent="gx5Wb-y74BsaOAA6WoiS-5" vertex="1">
          <mxGeometry width="30" height="30" as="geometry">
            <mxRectangle width="30" height="30" as="alternateBounds" />
          </mxGeometry>
        </mxCell>
        <mxCell id="gx5Wb-y74BsaOAA6WoiS-7" value="name" style="shape=partialRectangle;connectable=0;fillColor=none;top=0;left=0;bottom=0;right=0;align=left;spacingLeft=6;overflow=hidden;whiteSpace=wrap;html=1;" parent="gx5Wb-y74BsaOAA6WoiS-5" vertex="1">
          <mxGeometry x="30" width="150" height="30" as="geometry">
            <mxRectangle width="150" height="30" as="alternateBounds" />
          </mxGeometry>
        </mxCell>
        <mxCell id="gx5Wb-y74BsaOAA6WoiS-8" value="" style="shape=tableRow;horizontal=0;startSize=0;swimlaneHead=0;swimlaneBody=0;fillColor=none;collapsible=0;dropTarget=0;points=[[0,0.5],[1,0.5]];portConstraint=eastwest;top=0;left=0;right=0;bottom=0;" parent="gx5Wb-y74BsaOAA6WoiS-1" vertex="1">
          <mxGeometry y="90" width="180" height="30" as="geometry" />
        </mxCell>
        <mxCell id="gx5Wb-y74BsaOAA6WoiS-9" value="" style="shape=partialRectangle;connectable=0;fillColor=none;top=0;left=0;bottom=0;right=0;editable=1;overflow=hidden;whiteSpace=wrap;html=1;" parent="gx5Wb-y74BsaOAA6WoiS-8" vertex="1">
          <mxGeometry width="30" height="30" as="geometry">
            <mxRectangle width="30" height="30" as="alternateBounds" />
          </mxGeometry>
        </mxCell>
        <mxCell id="gx5Wb-y74BsaOAA6WoiS-10" value="email" style="shape=partialRectangle;connectable=0;fillColor=none;top=0;left=0;bottom=0;right=0;align=left;spacingLeft=6;overflow=hidden;whiteSpace=wrap;html=1;" parent="gx5Wb-y74BsaOAA6WoiS-8" vertex="1">
          <mxGeometry x="30" width="150" height="30" as="geometry">
            <mxRectangle width="150" height="30" as="alternateBounds" />
          </mxGeometry>
        </mxCell>
        <mxCell id="gx5Wb-y74BsaOAA6WoiS-11" value="" style="shape=tableRow;horizontal=0;startSize=0;swimlaneHead=0;swimlaneBody=0;fillColor=none;collapsible=0;dropTarget=0;points=[[0,0.5],[1,0.5]];portConstraint=eastwest;top=0;left=0;right=0;bottom=0;" parent="gx5Wb-y74BsaOAA6WoiS-1" vertex="1">
          <mxGeometry y="120" width="180" height="30" as="geometry" />
        </mxCell>
        <mxCell id="gx5Wb-y74BsaOAA6WoiS-12" value="" style="shape=partialRectangle;connectable=0;fillColor=none;top=0;left=0;bottom=0;right=0;editable=1;overflow=hidden;whiteSpace=wrap;html=1;" parent="gx5Wb-y74BsaOAA6WoiS-11" vertex="1">
          <mxGeometry width="30" height="30" as="geometry">
            <mxRectangle width="30" height="30" as="alternateBounds" />
          </mxGeometry>
        </mxCell>
        <mxCell id="gx5Wb-y74BsaOAA6WoiS-13" value="phone_number" style="shape=partialRectangle;connectable=0;fillColor=none;top=0;left=0;bottom=0;right=0;align=left;spacingLeft=6;overflow=hidden;whiteSpace=wrap;html=1;" parent="gx5Wb-y74BsaOAA6WoiS-11" vertex="1">
          <mxGeometry x="30" width="150" height="30" as="geometry">
            <mxRectangle width="150" height="30" as="alternateBounds" />
          </mxGeometry>
        </mxCell>
        <mxCell id="gx5Wb-y74BsaOAA6WoiS-27" style="shape=tableRow;horizontal=0;startSize=0;swimlaneHead=0;swimlaneBody=0;fillColor=none;collapsible=0;dropTarget=0;points=[[0,0.5],[1,0.5]];portConstraint=eastwest;top=0;left=0;right=0;bottom=0;" parent="gx5Wb-y74BsaOAA6WoiS-1" vertex="1">
          <mxGeometry y="150" width="180" height="30" as="geometry" />
        </mxCell>
        <mxCell id="gx5Wb-y74BsaOAA6WoiS-28" style="shape=partialRectangle;connectable=0;fillColor=none;top=0;left=0;bottom=0;right=0;editable=1;overflow=hidden;whiteSpace=wrap;html=1;" parent="gx5Wb-y74BsaOAA6WoiS-27" vertex="1">
          <mxGeometry width="30" height="30" as="geometry">
            <mxRectangle width="30" height="30" as="alternateBounds" />
          </mxGeometry>
        </mxCell>
        <mxCell id="gx5Wb-y74BsaOAA6WoiS-29" value="password" style="shape=partialRectangle;connectable=0;fillColor=none;top=0;left=0;bottom=0;right=0;align=left;spacingLeft=6;overflow=hidden;whiteSpace=wrap;html=1;" parent="gx5Wb-y74BsaOAA6WoiS-27" vertex="1">
          <mxGeometry x="30" width="150" height="30" as="geometry">
            <mxRectangle width="150" height="30" as="alternateBounds" />
          </mxGeometry>
        </mxCell>
        <mxCell id="gx5Wb-y74BsaOAA6WoiS-30" style="shape=tableRow;horizontal=0;startSize=0;swimlaneHead=0;swimlaneBody=0;fillColor=none;collapsible=0;dropTarget=0;points=[[0,0.5],[1,0.5]];portConstraint=eastwest;top=0;left=0;right=0;bottom=0;" parent="gx5Wb-y74BsaOAA6WoiS-1" vertex="1">
          <mxGeometry y="180" width="180" height="30" as="geometry" />
        </mxCell>
        <mxCell id="gx5Wb-y74BsaOAA6WoiS-31" style="shape=partialRectangle;connectable=0;fillColor=none;top=0;left=0;bottom=0;right=0;editable=1;overflow=hidden;whiteSpace=wrap;html=1;" parent="gx5Wb-y74BsaOAA6WoiS-30" vertex="1">
          <mxGeometry width="30" height="30" as="geometry">
            <mxRectangle width="30" height="30" as="alternateBounds" />
          </mxGeometry>
        </mxCell>
        <mxCell id="gx5Wb-y74BsaOAA6WoiS-32" value="balance" style="shape=partialRectangle;connectable=0;fillColor=none;top=0;left=0;bottom=0;right=0;align=left;spacingLeft=6;overflow=hidden;whiteSpace=wrap;html=1;" parent="gx5Wb-y74BsaOAA6WoiS-30" vertex="1">
          <mxGeometry x="30" width="150" height="30" as="geometry">
            <mxRectangle width="150" height="30" as="alternateBounds" />
          </mxGeometry>
        </mxCell>
        <mxCell id="gx5Wb-y74BsaOAA6WoiS-33" style="shape=tableRow;horizontal=0;startSize=0;swimlaneHead=0;swimlaneBody=0;fillColor=none;collapsible=0;dropTarget=0;points=[[0,0.5],[1,0.5]];portConstraint=eastwest;top=0;left=0;right=0;bottom=0;" parent="gx5Wb-y74BsaOAA6WoiS-1" vertex="1">
          <mxGeometry y="210" width="180" height="30" as="geometry" />
        </mxCell>
        <mxCell id="gx5Wb-y74BsaOAA6WoiS-34" style="shape=partialRectangle;connectable=0;fillColor=none;top=0;left=0;bottom=0;right=0;editable=1;overflow=hidden;whiteSpace=wrap;html=1;" parent="gx5Wb-y74BsaOAA6WoiS-33" vertex="1">
          <mxGeometry width="30" height="30" as="geometry">
            <mxRectangle width="30" height="30" as="alternateBounds" />
          </mxGeometry>
        </mxCell>
        <mxCell id="gx5Wb-y74BsaOAA6WoiS-35" value="create_at" style="shape=partialRectangle;connectable=0;fillColor=none;top=0;left=0;bottom=0;right=0;align=left;spacingLeft=6;overflow=hidden;whiteSpace=wrap;html=1;" parent="gx5Wb-y74BsaOAA6WoiS-33" vertex="1">
          <mxGeometry x="30" width="150" height="30" as="geometry">
            <mxRectangle width="150" height="30" as="alternateBounds" />
          </mxGeometry>
        </mxCell>
        <mxCell id="gx5Wb-y74BsaOAA6WoiS-36" style="shape=tableRow;horizontal=0;startSize=0;swimlaneHead=0;swimlaneBody=0;fillColor=none;collapsible=0;dropTarget=0;points=[[0,0.5],[1,0.5]];portConstraint=eastwest;top=0;left=0;right=0;bottom=0;" parent="gx5Wb-y74BsaOAA6WoiS-1" vertex="1">
          <mxGeometry y="240" width="180" height="30" as="geometry" />
        </mxCell>
        <mxCell id="gx5Wb-y74BsaOAA6WoiS-37" style="shape=partialRectangle;connectable=0;fillColor=none;top=0;left=0;bottom=0;right=0;editable=1;overflow=hidden;whiteSpace=wrap;html=1;" parent="gx5Wb-y74BsaOAA6WoiS-36" vertex="1">
          <mxGeometry width="30" height="30" as="geometry">
            <mxRectangle width="30" height="30" as="alternateBounds" />
          </mxGeometry>
        </mxCell>
        <mxCell id="gx5Wb-y74BsaOAA6WoiS-38" value="update_at" style="shape=partialRectangle;connectable=0;fillColor=none;top=0;left=0;bottom=0;right=0;align=left;spacingLeft=6;overflow=hidden;whiteSpace=wrap;html=1;" parent="gx5Wb-y74BsaOAA6WoiS-36" vertex="1">
          <mxGeometry x="30" width="150" height="30" as="geometry">
            <mxRectangle width="150" height="30" as="alternateBounds" />
          </mxGeometry>
        </mxCell>
        <mxCell id="gx5Wb-y74BsaOAA6WoiS-39" style="shape=tableRow;horizontal=0;startSize=0;swimlaneHead=0;swimlaneBody=0;fillColor=none;collapsible=0;dropTarget=0;points=[[0,0.5],[1,0.5]];portConstraint=eastwest;top=0;left=0;right=0;bottom=0;" parent="gx5Wb-y74BsaOAA6WoiS-1" vertex="1">
          <mxGeometry y="270" width="180" height="30" as="geometry" />
        </mxCell>
        <mxCell id="gx5Wb-y74BsaOAA6WoiS-40" style="shape=partialRectangle;connectable=0;fillColor=none;top=0;left=0;bottom=0;right=0;editable=1;overflow=hidden;whiteSpace=wrap;html=1;" parent="gx5Wb-y74BsaOAA6WoiS-39" vertex="1">
          <mxGeometry width="30" height="30" as="geometry">
            <mxRectangle width="30" height="30" as="alternateBounds" />
          </mxGeometry>
        </mxCell>
        <mxCell id="gx5Wb-y74BsaOAA6WoiS-41" value="delete_at" style="shape=partialRectangle;connectable=0;fillColor=none;top=0;left=0;bottom=0;right=0;align=left;spacingLeft=6;overflow=hidden;whiteSpace=wrap;html=1;" parent="gx5Wb-y74BsaOAA6WoiS-39" vertex="1">
          <mxGeometry x="30" width="150" height="30" as="geometry">
            <mxRectangle width="150" height="30" as="alternateBounds" />
          </mxGeometry>
        </mxCell>
        <mxCell id="gx5Wb-y74BsaOAA6WoiS-14" value="transaction" style="shape=table;startSize=30;container=1;collapsible=1;childLayout=tableLayout;fixedRows=1;rowLines=0;fontStyle=1;align=center;resizeLast=1;html=1;" parent="1" vertex="1">
          <mxGeometry x="-220" y="-880" width="180" height="210" as="geometry" />
        </mxCell>
        <mxCell id="gx5Wb-y74BsaOAA6WoiS-15" value="" style="shape=tableRow;horizontal=0;startSize=0;swimlaneHead=0;swimlaneBody=0;fillColor=none;collapsible=0;dropTarget=0;points=[[0,0.5],[1,0.5]];portConstraint=eastwest;top=0;left=0;right=0;bottom=1;" parent="gx5Wb-y74BsaOAA6WoiS-14" vertex="1">
          <mxGeometry y="30" width="180" height="30" as="geometry" />
        </mxCell>
        <mxCell id="gx5Wb-y74BsaOAA6WoiS-16" value="PK" style="shape=partialRectangle;connectable=0;fillColor=none;top=0;left=0;bottom=0;right=0;fontStyle=1;overflow=hidden;whiteSpace=wrap;html=1;" parent="gx5Wb-y74BsaOAA6WoiS-15" vertex="1">
          <mxGeometry width="30" height="30" as="geometry">
            <mxRectangle width="30" height="30" as="alternateBounds" />
          </mxGeometry>
        </mxCell>
        <mxCell id="gx5Wb-y74BsaOAA6WoiS-17" value="id" style="shape=partialRectangle;connectable=0;fillColor=none;top=0;left=0;bottom=0;right=0;align=left;spacingLeft=6;fontStyle=5;overflow=hidden;whiteSpace=wrap;html=1;" parent="gx5Wb-y74BsaOAA6WoiS-15" vertex="1">
          <mxGeometry x="30" width="150" height="30" as="geometry">
            <mxRectangle width="150" height="30" as="alternateBounds" />
          </mxGeometry>
        </mxCell>
        <mxCell id="N1U8MxhqDcZMY0fejf1R-11" style="shape=tableRow;horizontal=0;startSize=0;swimlaneHead=0;swimlaneBody=0;fillColor=none;collapsible=0;dropTarget=0;points=[[0,0.5],[1,0.5]];portConstraint=eastwest;top=0;left=0;right=0;bottom=0;" vertex="1" parent="gx5Wb-y74BsaOAA6WoiS-14">
          <mxGeometry y="60" width="180" height="30" as="geometry" />
        </mxCell>
        <mxCell id="N1U8MxhqDcZMY0fejf1R-12" style="shape=partialRectangle;connectable=0;fillColor=none;top=0;left=0;bottom=0;right=0;editable=1;overflow=hidden;whiteSpace=wrap;html=1;" vertex="1" parent="N1U8MxhqDcZMY0fejf1R-11">
          <mxGeometry width="30" height="30" as="geometry">
            <mxRectangle width="30" height="30" as="alternateBounds" />
          </mxGeometry>
        </mxCell>
        <mxCell id="N1U8MxhqDcZMY0fejf1R-13" value="status" style="shape=partialRectangle;connectable=0;fillColor=none;top=0;left=0;bottom=0;right=0;align=left;spacingLeft=6;overflow=hidden;whiteSpace=wrap;html=1;" vertex="1" parent="N1U8MxhqDcZMY0fejf1R-11">
          <mxGeometry x="30" width="150" height="30" as="geometry">
            <mxRectangle width="150" height="30" as="alternateBounds" />
          </mxGeometry>
        </mxCell>
        <mxCell id="gx5Wb-y74BsaOAA6WoiS-21" value="" style="shape=tableRow;horizontal=0;startSize=0;swimlaneHead=0;swimlaneBody=0;fillColor=none;collapsible=0;dropTarget=0;points=[[0,0.5],[1,0.5]];portConstraint=eastwest;top=0;left=0;right=0;bottom=0;" parent="gx5Wb-y74BsaOAA6WoiS-14" vertex="1">
          <mxGeometry y="90" width="180" height="30" as="geometry" />
        </mxCell>
        <mxCell id="gx5Wb-y74BsaOAA6WoiS-22" value="" style="shape=partialRectangle;connectable=0;fillColor=none;top=0;left=0;bottom=0;right=0;editable=1;overflow=hidden;whiteSpace=wrap;html=1;" parent="gx5Wb-y74BsaOAA6WoiS-21" vertex="1">
          <mxGeometry width="30" height="30" as="geometry">
            <mxRectangle width="30" height="30" as="alternateBounds" />
          </mxGeometry>
        </mxCell>
        <mxCell id="gx5Wb-y74BsaOAA6WoiS-23" value="user_id_pengirim" style="shape=partialRectangle;connectable=0;fillColor=none;top=0;left=0;bottom=0;right=0;align=left;spacingLeft=6;overflow=hidden;whiteSpace=wrap;html=1;" parent="gx5Wb-y74BsaOAA6WoiS-21" vertex="1">
          <mxGeometry x="30" width="150" height="30" as="geometry">
            <mxRectangle width="150" height="30" as="alternateBounds" />
          </mxGeometry>
        </mxCell>
        <mxCell id="gx5Wb-y74BsaOAA6WoiS-24" value="" style="shape=tableRow;horizontal=0;startSize=0;swimlaneHead=0;swimlaneBody=0;fillColor=none;collapsible=0;dropTarget=0;points=[[0,0.5],[1,0.5]];portConstraint=eastwest;top=0;left=0;right=0;bottom=0;" parent="gx5Wb-y74BsaOAA6WoiS-14" vertex="1">
          <mxGeometry y="120" width="180" height="30" as="geometry" />
        </mxCell>
        <mxCell id="gx5Wb-y74BsaOAA6WoiS-25" value="" style="shape=partialRectangle;connectable=0;fillColor=none;top=0;left=0;bottom=0;right=0;editable=1;overflow=hidden;whiteSpace=wrap;html=1;" parent="gx5Wb-y74BsaOAA6WoiS-24" vertex="1">
          <mxGeometry width="30" height="30" as="geometry">
            <mxRectangle width="30" height="30" as="alternateBounds" />
          </mxGeometry>
        </mxCell>
        <mxCell id="gx5Wb-y74BsaOAA6WoiS-26" value="user_id_penerima" style="shape=partialRectangle;connectable=0;fillColor=none;top=0;left=0;bottom=0;right=0;align=left;spacingLeft=6;overflow=hidden;whiteSpace=wrap;html=1;" parent="gx5Wb-y74BsaOAA6WoiS-24" vertex="1">
          <mxGeometry x="30" width="150" height="30" as="geometry">
            <mxRectangle width="150" height="30" as="alternateBounds" />
          </mxGeometry>
        </mxCell>
        <mxCell id="gx5Wb-y74BsaOAA6WoiS-42" style="shape=tableRow;horizontal=0;startSize=0;swimlaneHead=0;swimlaneBody=0;fillColor=none;collapsible=0;dropTarget=0;points=[[0,0.5],[1,0.5]];portConstraint=eastwest;top=0;left=0;right=0;bottom=0;" parent="gx5Wb-y74BsaOAA6WoiS-14" vertex="1">
          <mxGeometry y="150" width="180" height="30" as="geometry" />
        </mxCell>
        <mxCell id="gx5Wb-y74BsaOAA6WoiS-43" style="shape=partialRectangle;connectable=0;fillColor=none;top=0;left=0;bottom=0;right=0;editable=1;overflow=hidden;whiteSpace=wrap;html=1;" parent="gx5Wb-y74BsaOAA6WoiS-42" vertex="1">
          <mxGeometry width="30" height="30" as="geometry">
            <mxRectangle width="30" height="30" as="alternateBounds" />
          </mxGeometry>
        </mxCell>
        <mxCell id="gx5Wb-y74BsaOAA6WoiS-44" value="balance" style="shape=partialRectangle;connectable=0;fillColor=none;top=0;left=0;bottom=0;right=0;align=left;spacingLeft=6;overflow=hidden;whiteSpace=wrap;html=1;" parent="gx5Wb-y74BsaOAA6WoiS-42" vertex="1">
          <mxGeometry x="30" width="150" height="30" as="geometry">
            <mxRectangle width="150" height="30" as="alternateBounds" />
          </mxGeometry>
        </mxCell>
        <mxCell id="gx5Wb-y74BsaOAA6WoiS-45" style="shape=tableRow;horizontal=0;startSize=0;swimlaneHead=0;swimlaneBody=0;fillColor=none;collapsible=0;dropTarget=0;points=[[0,0.5],[1,0.5]];portConstraint=eastwest;top=0;left=0;right=0;bottom=0;" parent="gx5Wb-y74BsaOAA6WoiS-14" vertex="1">
          <mxGeometry y="180" width="180" height="30" as="geometry" />
        </mxCell>
        <mxCell id="gx5Wb-y74BsaOAA6WoiS-46" style="shape=partialRectangle;connectable=0;fillColor=none;top=0;left=0;bottom=0;right=0;editable=1;overflow=hidden;whiteSpace=wrap;html=1;" parent="gx5Wb-y74BsaOAA6WoiS-45" vertex="1">
          <mxGeometry width="30" height="30" as="geometry">
            <mxRectangle width="30" height="30" as="alternateBounds" />
          </mxGeometry>
        </mxCell>
        <mxCell id="gx5Wb-y74BsaOAA6WoiS-47" value="date_time_transaction" style="shape=partialRectangle;connectable=0;fillColor=none;top=0;left=0;bottom=0;right=0;align=left;spacingLeft=6;overflow=hidden;whiteSpace=wrap;html=1;" parent="gx5Wb-y74BsaOAA6WoiS-45" vertex="1">
          <mxGeometry x="30" width="150" height="30" as="geometry">
            <mxRectangle width="150" height="30" as="alternateBounds" />
          </mxGeometry>
        </mxCell>
        <mxCell id="gx5Wb-y74BsaOAA6WoiS-49" value="" style="edgeStyle=entityRelationEdgeStyle;fontSize=12;html=1;endArrow=ERzeroToMany;startArrow=ERmandOne;rounded=0;exitX=1;exitY=0.5;exitDx=0;exitDy=0;entryX=0;entryY=0.5;entryDx=0;entryDy=0;" parent="1" source="gx5Wb-y74BsaOAA6WoiS-2" target="gx5Wb-y74BsaOAA6WoiS-21" edge="1">
          <mxGeometry width="100" height="100" relative="1" as="geometry">
            <mxPoint x="-220" y="-410" as="sourcePoint" />
            <mxPoint x="-120" y="-510" as="targetPoint" />
          </mxGeometry>
        </mxCell>
        <mxCell id="gx5Wb-y74BsaOAA6WoiS-50" value="" style="edgeStyle=entityRelationEdgeStyle;fontSize=12;html=1;endArrow=ERzeroToMany;startArrow=ERmandOne;rounded=0;exitX=1;exitY=0.5;exitDx=0;exitDy=0;entryX=0;entryY=0.5;entryDx=0;entryDy=0;" parent="1" source="gx5Wb-y74BsaOAA6WoiS-2" target="gx5Wb-y74BsaOAA6WoiS-24" edge="1">
          <mxGeometry width="100" height="100" relative="1" as="geometry">
            <mxPoint x="-290" y="-735" as="sourcePoint" />
            <mxPoint x="-200" y="-675" as="targetPoint" />
          </mxGeometry>
        </mxCell>
        <mxCell id="O-xxoR6y4JepeyC2fcWW-472" value="&lt;font style=&quot;font-size: 21px;&quot;&gt;Use Case Diagram&lt;/font&gt;" style="swimlane;whiteSpace=wrap;html=1;startSize=50;strokeWidth=3;" parent="1" vertex="1">
          <mxGeometry x="-640" y="-440" width="710" height="550" as="geometry" />
        </mxCell>
        <mxCell id="O-xxoR6y4JepeyC2fcWW-509" value="" style="group" parent="O-xxoR6y4JepeyC2fcWW-472" vertex="1" connectable="0">
          <mxGeometry x="100" y="80" width="460" height="410" as="geometry" />
        </mxCell>
        <mxCell id="O-xxoR6y4JepeyC2fcWW-3" value="" style="verticalLabelPosition=bottom;verticalAlign=top;html=1;shape=mxgraph.basic.rect;fillColor2=none;strokeWidth=1;size=20;indent=5;" parent="O-xxoR6y4JepeyC2fcWW-509" vertex="1">
          <mxGeometry x="140" width="320" height="410" as="geometry" />
        </mxCell>
        <mxCell id="O-xxoR6y4JepeyC2fcWW-502" value="" style="rounded=0;whiteSpace=wrap;html=1;" parent="O-xxoR6y4JepeyC2fcWW-509" vertex="1">
          <mxGeometry y="150" width="70" height="130" as="geometry" />
        </mxCell>
        <mxCell id="O-xxoR6y4JepeyC2fcWW-1" value="Users" style="shape=umlActor;verticalLabelPosition=bottom;verticalAlign=top;html=1;" parent="O-xxoR6y4JepeyC2fcWW-509" vertex="1">
          <mxGeometry x="20" y="180" width="30" height="60" as="geometry" />
        </mxCell>
        <mxCell id="O-xxoR6y4JepeyC2fcWW-5" value="Transfer" style="ellipse;whiteSpace=wrap;html=1;" parent="O-xxoR6y4JepeyC2fcWW-509" vertex="1">
          <mxGeometry x="175" y="20" width="120" height="60" as="geometry" />
        </mxCell>
        <mxCell id="O-xxoR6y4JepeyC2fcWW-503" style="rounded=0;orthogonalLoop=1;jettySize=auto;html=1;exitX=1;exitY=0.5;exitDx=0;exitDy=0;entryX=0;entryY=0.5;entryDx=0;entryDy=0;" parent="O-xxoR6y4JepeyC2fcWW-509" source="O-xxoR6y4JepeyC2fcWW-502" target="O-xxoR6y4JepeyC2fcWW-5" edge="1">
          <mxGeometry relative="1" as="geometry" />
        </mxCell>
        <mxCell id="O-xxoR6y4JepeyC2fcWW-8" value="Topup" style="ellipse;whiteSpace=wrap;html=1;" parent="O-xxoR6y4JepeyC2fcWW-509" vertex="1">
          <mxGeometry x="175" y="140" width="120" height="60" as="geometry" />
        </mxCell>
        <mxCell id="O-xxoR6y4JepeyC2fcWW-505" style="rounded=0;orthogonalLoop=1;jettySize=auto;html=1;exitX=1;exitY=0.5;exitDx=0;exitDy=0;entryX=0;entryY=0.5;entryDx=0;entryDy=0;" parent="O-xxoR6y4JepeyC2fcWW-509" source="O-xxoR6y4JepeyC2fcWW-502" target="O-xxoR6y4JepeyC2fcWW-8" edge="1">
          <mxGeometry relative="1" as="geometry" />
        </mxCell>
        <mxCell id="O-xxoR6y4JepeyC2fcWW-9" value="CRUD data profil" style="ellipse;whiteSpace=wrap;html=1;" parent="O-xxoR6y4JepeyC2fcWW-509" vertex="1">
          <mxGeometry x="175" y="260" width="120" height="60" as="geometry" />
        </mxCell>
        <mxCell id="O-xxoR6y4JepeyC2fcWW-507" style="rounded=0;orthogonalLoop=1;jettySize=auto;html=1;exitX=1;exitY=0.5;exitDx=0;exitDy=0;entryX=0;entryY=0.5;entryDx=0;entryDy=0;" parent="O-xxoR6y4JepeyC2fcWW-509" source="O-xxoR6y4JepeyC2fcWW-502" target="O-xxoR6y4JepeyC2fcWW-9" edge="1">
          <mxGeometry relative="1" as="geometry" />
        </mxCell>
        <mxCell id="O-xxoR6y4JepeyC2fcWW-10" value="Login" style="ellipse;whiteSpace=wrap;html=1;" parent="O-xxoR6y4JepeyC2fcWW-509" vertex="1">
          <mxGeometry x="295" y="320" width="120" height="60" as="geometry" />
        </mxCell>
        <mxCell id="O-xxoR6y4JepeyC2fcWW-508" style="rounded=0;orthogonalLoop=1;jettySize=auto;html=1;exitX=1;exitY=0.5;exitDx=0;exitDy=0;entryX=0;entryY=0.5;entryDx=0;entryDy=0;" parent="O-xxoR6y4JepeyC2fcWW-509" source="O-xxoR6y4JepeyC2fcWW-502" target="O-xxoR6y4JepeyC2fcWW-10" edge="1">
          <mxGeometry relative="1" as="geometry" />
        </mxCell>
        <mxCell id="O-xxoR6y4JepeyC2fcWW-11" value="melihat balance" style="ellipse;whiteSpace=wrap;html=1;" parent="O-xxoR6y4JepeyC2fcWW-509" vertex="1">
          <mxGeometry x="295" y="80" width="120" height="60" as="geometry" />
        </mxCell>
        <mxCell id="O-xxoR6y4JepeyC2fcWW-504" style="rounded=0;orthogonalLoop=1;jettySize=auto;html=1;exitX=1;exitY=0.5;exitDx=0;exitDy=0;entryX=0;entryY=0.5;entryDx=0;entryDy=0;" parent="O-xxoR6y4JepeyC2fcWW-509" source="O-xxoR6y4JepeyC2fcWW-502" target="O-xxoR6y4JepeyC2fcWW-11" edge="1">
          <mxGeometry relative="1" as="geometry" />
        </mxCell>
        <mxCell id="O-xxoR6y4JepeyC2fcWW-12" value="melihat histori transaksi" style="ellipse;whiteSpace=wrap;html=1;" parent="O-xxoR6y4JepeyC2fcWW-509" vertex="1">
          <mxGeometry x="295" y="200" width="120" height="60" as="geometry" />
        </mxCell>
        <mxCell id="O-xxoR6y4JepeyC2fcWW-506" style="rounded=0;orthogonalLoop=1;jettySize=auto;html=1;exitX=1;exitY=0.5;exitDx=0;exitDy=0;" parent="O-xxoR6y4JepeyC2fcWW-509" source="O-xxoR6y4JepeyC2fcWW-502" target="O-xxoR6y4JepeyC2fcWW-12" edge="1">
          <mxGeometry relative="1" as="geometry" />
        </mxCell>
        <mxCell id="O-xxoR6y4JepeyC2fcWW-512" value="&lt;font style=&quot;font-size: 21px;&quot;&gt;Activity Diagram&lt;br&gt;&lt;/font&gt;" style="swimlane;whiteSpace=wrap;html=1;startSize=50;strokeWidth=3;" parent="1" vertex="1">
          <mxGeometry x="240" y="-960" width="2880" height="1485" as="geometry" />
        </mxCell>
        <mxCell id="O-xxoR6y4JepeyC2fcWW-511" value="" style="group" parent="O-xxoR6y4JepeyC2fcWW-512" vertex="1" connectable="0">
          <mxGeometry x="80" y="155" width="520" height="330" as="geometry" />
        </mxCell>
        <mxCell id="O-xxoR6y4JepeyC2fcWW-15" value="mendaftar*" style="swimlane;whiteSpace=wrap;html=1;" parent="O-xxoR6y4JepeyC2fcWW-511" vertex="1">
          <mxGeometry width="260" height="330" as="geometry" />
        </mxCell>
        <mxCell id="O-xxoR6y4JepeyC2fcWW-16" value="memasukkan data diri" style="rounded=1;whiteSpace=wrap;html=1;" parent="O-xxoR6y4JepeyC2fcWW-15" vertex="1">
          <mxGeometry x="70" y="110" width="120" height="60" as="geometry" />
        </mxCell>
        <mxCell id="O-xxoR6y4JepeyC2fcWW-18" style="edgeStyle=orthogonalEdgeStyle;rounded=0;orthogonalLoop=1;jettySize=auto;html=1;exitX=0.5;exitY=1;exitDx=0;exitDy=0;entryX=0.5;entryY=0;entryDx=0;entryDy=0;" parent="O-xxoR6y4JepeyC2fcWW-15" source="O-xxoR6y4JepeyC2fcWW-17" target="O-xxoR6y4JepeyC2fcWW-16" edge="1">
          <mxGeometry relative="1" as="geometry" />
        </mxCell>
        <mxCell id="O-xxoR6y4JepeyC2fcWW-17" value="" style="ellipse;whiteSpace=wrap;html=1;aspect=fixed;" parent="O-xxoR6y4JepeyC2fcWW-15" vertex="1">
          <mxGeometry x="110" y="40" width="40" height="40" as="geometry" />
        </mxCell>
        <mxCell id="O-xxoR6y4JepeyC2fcWW-19" value="mendaftar#" style="swimlane;whiteSpace=wrap;html=1;" parent="O-xxoR6y4JepeyC2fcWW-511" vertex="1">
          <mxGeometry x="260" width="260" height="330" as="geometry" />
        </mxCell>
        <mxCell id="O-xxoR6y4JepeyC2fcWW-21" style="edgeStyle=orthogonalEdgeStyle;rounded=0;orthogonalLoop=1;jettySize=auto;html=1;exitX=0.5;exitY=1;exitDx=0;exitDy=0;entryX=0.5;entryY=0;entryDx=0;entryDy=0;" parent="O-xxoR6y4JepeyC2fcWW-19" edge="1">
          <mxGeometry relative="1" as="geometry">
            <mxPoint x="130" y="110" as="targetPoint" />
          </mxGeometry>
        </mxCell>
        <mxCell id="O-xxoR6y4JepeyC2fcWW-26" style="edgeStyle=orthogonalEdgeStyle;rounded=0;orthogonalLoop=1;jettySize=auto;html=1;exitX=0.5;exitY=1;exitDx=0;exitDy=0;entryX=0.5;entryY=0;entryDx=0;entryDy=0;" parent="O-xxoR6y4JepeyC2fcWW-19" source="O-xxoR6y4JepeyC2fcWW-23" target="O-xxoR6y4JepeyC2fcWW-25" edge="1">
          <mxGeometry relative="1" as="geometry" />
        </mxCell>
        <mxCell id="O-xxoR6y4JepeyC2fcWW-23" value="menerima data dari user dan menyimpan di database" style="rounded=1;whiteSpace=wrap;html=1;" parent="O-xxoR6y4JepeyC2fcWW-19" vertex="1">
          <mxGeometry x="70" y="110" width="120" height="60" as="geometry" />
        </mxCell>
        <mxCell id="O-xxoR6y4JepeyC2fcWW-25" value="" style="ellipse;whiteSpace=wrap;html=1;aspect=fixed;" parent="O-xxoR6y4JepeyC2fcWW-19" vertex="1">
          <mxGeometry x="110" y="220" width="40" height="40" as="geometry" />
        </mxCell>
        <mxCell id="O-xxoR6y4JepeyC2fcWW-24" style="edgeStyle=orthogonalEdgeStyle;rounded=0;orthogonalLoop=1;jettySize=auto;html=1;exitX=1;exitY=0.5;exitDx=0;exitDy=0;entryX=0;entryY=0.5;entryDx=0;entryDy=0;" parent="O-xxoR6y4JepeyC2fcWW-511" source="O-xxoR6y4JepeyC2fcWW-16" target="O-xxoR6y4JepeyC2fcWW-23" edge="1">
          <mxGeometry relative="1" as="geometry" />
        </mxCell>
        <mxCell id="O-xxoR6y4JepeyC2fcWW-529" value="&lt;font style=&quot;font-size: 18px;&quot;&gt;* = User&lt;br&gt;&lt;/font&gt;&lt;div style=&quot;font-size: 18px;&quot;&gt;&lt;span style=&quot;background-color: initial;&quot;&gt;&lt;font style=&quot;font-size: 18px;&quot;&gt;# = Sistem&lt;/font&gt;&lt;/span&gt;&lt;/div&gt;" style="text;html=1;strokeColor=none;fillColor=none;align=left;verticalAlign=middle;whiteSpace=wrap;rounded=0;" parent="O-xxoR6y4JepeyC2fcWW-512" vertex="1">
          <mxGeometry x="60" y="75" width="160" height="30" as="geometry" />
        </mxCell>
        <mxCell id="xOamFbycdJBBgBO8ghrL-1" value="" style="group" parent="O-xxoR6y4JepeyC2fcWW-512" vertex="1" connectable="0">
          <mxGeometry x="80" y="515" width="520" height="470" as="geometry" />
        </mxCell>
        <mxCell id="O-xxoR6y4JepeyC2fcWW-27" value="login" style="swimlane;whiteSpace=wrap;html=1;startSize=23;" parent="xOamFbycdJBBgBO8ghrL-1" vertex="1">
          <mxGeometry width="260" height="470" as="geometry" />
        </mxCell>
        <mxCell id="O-xxoR6y4JepeyC2fcWW-28" value="memasukkan nomor telp dan password" style="rounded=1;whiteSpace=wrap;html=1;" parent="O-xxoR6y4JepeyC2fcWW-27" vertex="1">
          <mxGeometry x="70" y="110" width="120" height="60" as="geometry" />
        </mxCell>
        <mxCell id="O-xxoR6y4JepeyC2fcWW-29" style="edgeStyle=orthogonalEdgeStyle;rounded=0;orthogonalLoop=1;jettySize=auto;html=1;exitX=0.5;exitY=1;exitDx=0;exitDy=0;entryX=0.5;entryY=0;entryDx=0;entryDy=0;" parent="O-xxoR6y4JepeyC2fcWW-27" source="O-xxoR6y4JepeyC2fcWW-30" target="O-xxoR6y4JepeyC2fcWW-28" edge="1">
          <mxGeometry relative="1" as="geometry" />
        </mxCell>
        <mxCell id="O-xxoR6y4JepeyC2fcWW-30" value="" style="ellipse;whiteSpace=wrap;html=1;aspect=fixed;" parent="O-xxoR6y4JepeyC2fcWW-27" vertex="1">
          <mxGeometry x="110" y="40" width="40" height="40" as="geometry" />
        </mxCell>
        <mxCell id="O-xxoR6y4JepeyC2fcWW-31" value="login" style="swimlane;whiteSpace=wrap;html=1;" parent="xOamFbycdJBBgBO8ghrL-1" vertex="1">
          <mxGeometry x="260" width="260" height="470" as="geometry" />
        </mxCell>
        <mxCell id="O-xxoR6y4JepeyC2fcWW-32" style="edgeStyle=orthogonalEdgeStyle;rounded=0;orthogonalLoop=1;jettySize=auto;html=1;exitX=0.5;exitY=1;exitDx=0;exitDy=0;entryX=0.5;entryY=0;entryDx=0;entryDy=0;" parent="O-xxoR6y4JepeyC2fcWW-31" edge="1">
          <mxGeometry relative="1" as="geometry">
            <mxPoint x="130" y="110" as="targetPoint" />
          </mxGeometry>
        </mxCell>
        <mxCell id="O-xxoR6y4JepeyC2fcWW-33" style="edgeStyle=orthogonalEdgeStyle;rounded=0;orthogonalLoop=1;jettySize=auto;html=1;exitX=0.5;exitY=1;exitDx=0;exitDy=0;" parent="O-xxoR6y4JepeyC2fcWW-31" source="O-xxoR6y4JepeyC2fcWW-34" edge="1">
          <mxGeometry relative="1" as="geometry">
            <mxPoint x="130" y="200" as="targetPoint" />
          </mxGeometry>
        </mxCell>
        <mxCell id="O-xxoR6y4JepeyC2fcWW-34" value="melakukan validasi nomor telpon dan password" style="rounded=1;whiteSpace=wrap;html=1;" parent="O-xxoR6y4JepeyC2fcWW-31" vertex="1">
          <mxGeometry x="70" y="110" width="120" height="60" as="geometry" />
        </mxCell>
        <mxCell id="O-xxoR6y4JepeyC2fcWW-40" style="edgeStyle=orthogonalEdgeStyle;rounded=0;orthogonalLoop=1;jettySize=auto;html=1;exitX=0.5;exitY=1;exitDx=0;exitDy=0;entryX=0.5;entryY=0;entryDx=0;entryDy=0;" parent="O-xxoR6y4JepeyC2fcWW-31" source="O-xxoR6y4JepeyC2fcWW-37" target="O-xxoR6y4JepeyC2fcWW-39" edge="1">
          <mxGeometry relative="1" as="geometry" />
        </mxCell>
        <mxCell id="O-xxoR6y4JepeyC2fcWW-180" value="Yes" style="edgeLabel;html=1;align=center;verticalAlign=middle;resizable=0;points=[];" parent="O-xxoR6y4JepeyC2fcWW-40" vertex="1" connectable="0">
          <mxGeometry x="0.0472" y="-2" relative="1" as="geometry">
            <mxPoint as="offset" />
          </mxGeometry>
        </mxCell>
        <mxCell id="O-xxoR6y4JepeyC2fcWW-37" value="berhasil?" style="rhombus;whiteSpace=wrap;html=1;" parent="O-xxoR6y4JepeyC2fcWW-31" vertex="1">
          <mxGeometry x="90" y="200" width="80" height="80" as="geometry" />
        </mxCell>
        <mxCell id="O-xxoR6y4JepeyC2fcWW-43" style="edgeStyle=orthogonalEdgeStyle;rounded=0;orthogonalLoop=1;jettySize=auto;html=1;exitX=0.5;exitY=1;exitDx=0;exitDy=0;entryX=0.5;entryY=0;entryDx=0;entryDy=0;" parent="O-xxoR6y4JepeyC2fcWW-31" source="O-xxoR6y4JepeyC2fcWW-39" target="O-xxoR6y4JepeyC2fcWW-42" edge="1">
          <mxGeometry relative="1" as="geometry" />
        </mxCell>
        <mxCell id="O-xxoR6y4JepeyC2fcWW-39" value="sistem menampilkan menu utama" style="rounded=1;whiteSpace=wrap;html=1;" parent="O-xxoR6y4JepeyC2fcWW-31" vertex="1">
          <mxGeometry x="70" y="320" width="120" height="60" as="geometry" />
        </mxCell>
        <mxCell id="O-xxoR6y4JepeyC2fcWW-42" value="" style="ellipse;whiteSpace=wrap;html=1;aspect=fixed;" parent="O-xxoR6y4JepeyC2fcWW-31" vertex="1">
          <mxGeometry x="110" y="410" width="40" height="40" as="geometry" />
        </mxCell>
        <mxCell id="O-xxoR6y4JepeyC2fcWW-36" style="edgeStyle=orthogonalEdgeStyle;rounded=0;orthogonalLoop=1;jettySize=auto;html=1;exitX=1;exitY=0.5;exitDx=0;exitDy=0;entryX=0;entryY=0.5;entryDx=0;entryDy=0;" parent="xOamFbycdJBBgBO8ghrL-1" source="O-xxoR6y4JepeyC2fcWW-28" target="O-xxoR6y4JepeyC2fcWW-34" edge="1">
          <mxGeometry relative="1" as="geometry" />
        </mxCell>
        <mxCell id="O-xxoR6y4JepeyC2fcWW-41" style="edgeStyle=orthogonalEdgeStyle;rounded=0;orthogonalLoop=1;jettySize=auto;html=1;exitX=0;exitY=0.5;exitDx=0;exitDy=0;entryX=0.45;entryY=1.017;entryDx=0;entryDy=0;entryPerimeter=0;" parent="xOamFbycdJBBgBO8ghrL-1" source="O-xxoR6y4JepeyC2fcWW-37" target="O-xxoR6y4JepeyC2fcWW-28" edge="1">
          <mxGeometry relative="1" as="geometry" />
        </mxCell>
        <mxCell id="O-xxoR6y4JepeyC2fcWW-181" value="No" style="edgeLabel;html=1;align=center;verticalAlign=middle;resizable=0;points=[];" parent="O-xxoR6y4JepeyC2fcWW-41" vertex="1" connectable="0">
          <mxGeometry x="-0.6323" y="-2" relative="1" as="geometry">
            <mxPoint as="offset" />
          </mxGeometry>
        </mxCell>
        <mxCell id="xOamFbycdJBBgBO8ghrL-3" value="" style="group" parent="O-xxoR6y4JepeyC2fcWW-512" vertex="1" connectable="0">
          <mxGeometry x="640" y="155" width="520" height="310" as="geometry" />
        </mxCell>
        <mxCell id="O-xxoR6y4JepeyC2fcWW-89" value="melihat balance" style="swimlane;whiteSpace=wrap;html=1;startSize=23;" parent="xOamFbycdJBBgBO8ghrL-3" vertex="1">
          <mxGeometry width="260" height="310" as="geometry" />
        </mxCell>
        <mxCell id="O-xxoR6y4JepeyC2fcWW-90" value="user memilih menu melihat balance" style="rounded=1;whiteSpace=wrap;html=1;" parent="O-xxoR6y4JepeyC2fcWW-89" vertex="1">
          <mxGeometry x="70" y="110" width="120" height="60" as="geometry" />
        </mxCell>
        <mxCell id="O-xxoR6y4JepeyC2fcWW-91" style="edgeStyle=orthogonalEdgeStyle;rounded=0;orthogonalLoop=1;jettySize=auto;html=1;exitX=0.5;exitY=1;exitDx=0;exitDy=0;entryX=0.5;entryY=0;entryDx=0;entryDy=0;" parent="O-xxoR6y4JepeyC2fcWW-89" source="O-xxoR6y4JepeyC2fcWW-92" target="O-xxoR6y4JepeyC2fcWW-90" edge="1">
          <mxGeometry relative="1" as="geometry" />
        </mxCell>
        <mxCell id="O-xxoR6y4JepeyC2fcWW-92" value="" style="ellipse;whiteSpace=wrap;html=1;aspect=fixed;" parent="O-xxoR6y4JepeyC2fcWW-89" vertex="1">
          <mxGeometry x="110" y="40" width="40" height="40" as="geometry" />
        </mxCell>
        <mxCell id="O-xxoR6y4JepeyC2fcWW-96" value="melihat balance" style="swimlane;whiteSpace=wrap;html=1;startSize=23;" parent="xOamFbycdJBBgBO8ghrL-3" vertex="1">
          <mxGeometry x="260" width="260" height="310" as="geometry" />
        </mxCell>
        <mxCell id="O-xxoR6y4JepeyC2fcWW-97" style="edgeStyle=orthogonalEdgeStyle;rounded=0;orthogonalLoop=1;jettySize=auto;html=1;exitX=0.5;exitY=1;exitDx=0;exitDy=0;entryX=0.5;entryY=0;entryDx=0;entryDy=0;" parent="O-xxoR6y4JepeyC2fcWW-96" edge="1">
          <mxGeometry relative="1" as="geometry">
            <mxPoint x="130" y="110" as="targetPoint" />
          </mxGeometry>
        </mxCell>
        <mxCell id="O-xxoR6y4JepeyC2fcWW-107" style="edgeStyle=orthogonalEdgeStyle;rounded=0;orthogonalLoop=1;jettySize=auto;html=1;exitX=0.5;exitY=1;exitDx=0;exitDy=0;entryX=0.5;entryY=0;entryDx=0;entryDy=0;" parent="O-xxoR6y4JepeyC2fcWW-96" source="O-xxoR6y4JepeyC2fcWW-98" target="O-xxoR6y4JepeyC2fcWW-105" edge="1">
          <mxGeometry relative="1" as="geometry" />
        </mxCell>
        <mxCell id="O-xxoR6y4JepeyC2fcWW-98" value="menampilkan balance user" style="rounded=1;whiteSpace=wrap;html=1;" parent="O-xxoR6y4JepeyC2fcWW-96" vertex="1">
          <mxGeometry x="70" y="110" width="120" height="60" as="geometry" />
        </mxCell>
        <mxCell id="O-xxoR6y4JepeyC2fcWW-105" value="" style="ellipse;whiteSpace=wrap;html=1;aspect=fixed;" parent="O-xxoR6y4JepeyC2fcWW-96" vertex="1">
          <mxGeometry x="110" y="220" width="40" height="40" as="geometry" />
        </mxCell>
        <mxCell id="O-xxoR6y4JepeyC2fcWW-106" style="edgeStyle=orthogonalEdgeStyle;rounded=0;orthogonalLoop=1;jettySize=auto;html=1;exitX=1;exitY=0.5;exitDx=0;exitDy=0;entryX=0;entryY=0.5;entryDx=0;entryDy=0;" parent="xOamFbycdJBBgBO8ghrL-3" source="O-xxoR6y4JepeyC2fcWW-90" target="O-xxoR6y4JepeyC2fcWW-98" edge="1">
          <mxGeometry relative="1" as="geometry" />
        </mxCell>
        <mxCell id="xOamFbycdJBBgBO8ghrL-4" value="" style="group" parent="O-xxoR6y4JepeyC2fcWW-512" vertex="1" connectable="0">
          <mxGeometry x="1190" y="155" width="520" height="310" as="geometry" />
        </mxCell>
        <mxCell id="O-xxoR6y4JepeyC2fcWW-108" value="history transfer" style="swimlane;whiteSpace=wrap;html=1;startSize=23;" parent="xOamFbycdJBBgBO8ghrL-4" vertex="1">
          <mxGeometry width="260" height="310" as="geometry" />
        </mxCell>
        <mxCell id="O-xxoR6y4JepeyC2fcWW-109" value="user memilih menu lihat history transfer" style="rounded=1;whiteSpace=wrap;html=1;" parent="O-xxoR6y4JepeyC2fcWW-108" vertex="1">
          <mxGeometry x="70" y="110" width="120" height="60" as="geometry" />
        </mxCell>
        <mxCell id="O-xxoR6y4JepeyC2fcWW-110" style="edgeStyle=orthogonalEdgeStyle;rounded=0;orthogonalLoop=1;jettySize=auto;html=1;exitX=0.5;exitY=1;exitDx=0;exitDy=0;entryX=0.5;entryY=0;entryDx=0;entryDy=0;" parent="O-xxoR6y4JepeyC2fcWW-108" source="O-xxoR6y4JepeyC2fcWW-111" target="O-xxoR6y4JepeyC2fcWW-109" edge="1">
          <mxGeometry relative="1" as="geometry" />
        </mxCell>
        <mxCell id="O-xxoR6y4JepeyC2fcWW-111" value="" style="ellipse;whiteSpace=wrap;html=1;aspect=fixed;" parent="O-xxoR6y4JepeyC2fcWW-108" vertex="1">
          <mxGeometry x="110" y="40" width="40" height="40" as="geometry" />
        </mxCell>
        <mxCell id="O-xxoR6y4JepeyC2fcWW-112" value="history transfer" style="swimlane;whiteSpace=wrap;html=1;startSize=23;" parent="xOamFbycdJBBgBO8ghrL-4" vertex="1">
          <mxGeometry x="260" width="260" height="310" as="geometry" />
        </mxCell>
        <mxCell id="O-xxoR6y4JepeyC2fcWW-113" style="edgeStyle=orthogonalEdgeStyle;rounded=0;orthogonalLoop=1;jettySize=auto;html=1;exitX=0.5;exitY=1;exitDx=0;exitDy=0;entryX=0.5;entryY=0;entryDx=0;entryDy=0;" parent="O-xxoR6y4JepeyC2fcWW-112" edge="1">
          <mxGeometry relative="1" as="geometry">
            <mxPoint x="130" y="110" as="targetPoint" />
          </mxGeometry>
        </mxCell>
        <mxCell id="O-xxoR6y4JepeyC2fcWW-114" style="edgeStyle=orthogonalEdgeStyle;rounded=0;orthogonalLoop=1;jettySize=auto;html=1;exitX=0.5;exitY=1;exitDx=0;exitDy=0;entryX=0.5;entryY=0;entryDx=0;entryDy=0;" parent="O-xxoR6y4JepeyC2fcWW-112" source="O-xxoR6y4JepeyC2fcWW-115" target="O-xxoR6y4JepeyC2fcWW-116" edge="1">
          <mxGeometry relative="1" as="geometry" />
        </mxCell>
        <mxCell id="O-xxoR6y4JepeyC2fcWW-115" value="menampilkan data history transfer oleh user" style="rounded=1;whiteSpace=wrap;html=1;" parent="O-xxoR6y4JepeyC2fcWW-112" vertex="1">
          <mxGeometry x="70" y="110" width="120" height="60" as="geometry" />
        </mxCell>
        <mxCell id="O-xxoR6y4JepeyC2fcWW-116" value="" style="ellipse;whiteSpace=wrap;html=1;aspect=fixed;" parent="O-xxoR6y4JepeyC2fcWW-112" vertex="1">
          <mxGeometry x="110" y="220" width="40" height="40" as="geometry" />
        </mxCell>
        <mxCell id="O-xxoR6y4JepeyC2fcWW-117" style="edgeStyle=orthogonalEdgeStyle;rounded=0;orthogonalLoop=1;jettySize=auto;html=1;exitX=1;exitY=0.5;exitDx=0;exitDy=0;entryX=0;entryY=0.5;entryDx=0;entryDy=0;" parent="xOamFbycdJBBgBO8ghrL-4" source="O-xxoR6y4JepeyC2fcWW-109" target="O-xxoR6y4JepeyC2fcWW-115" edge="1">
          <mxGeometry relative="1" as="geometry" />
        </mxCell>
        <mxCell id="xOamFbycdJBBgBO8ghrL-5" value="" style="group" parent="O-xxoR6y4JepeyC2fcWW-512" vertex="1" connectable="0">
          <mxGeometry x="640" y="515" width="520" height="690" as="geometry" />
        </mxCell>
        <mxCell id="O-xxoR6y4JepeyC2fcWW-44" value="transfer" style="swimlane;whiteSpace=wrap;html=1;startSize=23;" parent="xOamFbycdJBBgBO8ghrL-5" vertex="1">
          <mxGeometry width="260" height="690" as="geometry" />
        </mxCell>
        <mxCell id="O-xxoR6y4JepeyC2fcWW-45" value="user memilih menu transfer" style="rounded=1;whiteSpace=wrap;html=1;" parent="O-xxoR6y4JepeyC2fcWW-44" vertex="1">
          <mxGeometry x="70" y="110" width="120" height="60" as="geometry" />
        </mxCell>
        <mxCell id="O-xxoR6y4JepeyC2fcWW-46" style="edgeStyle=orthogonalEdgeStyle;rounded=0;orthogonalLoop=1;jettySize=auto;html=1;exitX=0.5;exitY=1;exitDx=0;exitDy=0;entryX=0.5;entryY=0;entryDx=0;entryDy=0;" parent="O-xxoR6y4JepeyC2fcWW-44" source="O-xxoR6y4JepeyC2fcWW-47" target="O-xxoR6y4JepeyC2fcWW-45" edge="1">
          <mxGeometry relative="1" as="geometry" />
        </mxCell>
        <mxCell id="O-xxoR6y4JepeyC2fcWW-47" value="" style="ellipse;whiteSpace=wrap;html=1;aspect=fixed;" parent="O-xxoR6y4JepeyC2fcWW-44" vertex="1">
          <mxGeometry x="110" y="40" width="40" height="40" as="geometry" />
        </mxCell>
        <mxCell id="O-xxoR6y4JepeyC2fcWW-54" value="user memilih/memasukkan nomor tujuan dan nominal" style="rounded=1;whiteSpace=wrap;html=1;" parent="O-xxoR6y4JepeyC2fcWW-44" vertex="1">
          <mxGeometry x="70" y="210" width="120" height="60" as="geometry" />
        </mxCell>
        <mxCell id="O-xxoR6y4JepeyC2fcWW-197" style="edgeStyle=orthogonalEdgeStyle;rounded=0;orthogonalLoop=1;jettySize=auto;html=1;exitX=0;exitY=0.5;exitDx=0;exitDy=0;entryX=0;entryY=0.5;entryDx=0;entryDy=0;" parent="O-xxoR6y4JepeyC2fcWW-44" source="O-xxoR6y4JepeyC2fcWW-195" target="O-xxoR6y4JepeyC2fcWW-45" edge="1">
          <mxGeometry relative="1" as="geometry">
            <Array as="points">
              <mxPoint x="20" y="610" />
              <mxPoint x="20" y="140" />
            </Array>
          </mxGeometry>
        </mxCell>
        <mxCell id="O-xxoR6y4JepeyC2fcWW-198" style="edgeStyle=orthogonalEdgeStyle;rounded=0;orthogonalLoop=1;jettySize=auto;html=1;exitX=0.5;exitY=1;exitDx=0;exitDy=0;entryX=0.5;entryY=0;entryDx=0;entryDy=0;" parent="O-xxoR6y4JepeyC2fcWW-44" source="O-xxoR6y4JepeyC2fcWW-194" target="O-xxoR6y4JepeyC2fcWW-195" edge="1">
          <mxGeometry relative="1" as="geometry" />
        </mxCell>
        <mxCell id="O-xxoR6y4JepeyC2fcWW-194" value="user memvalidasi" style="rounded=1;whiteSpace=wrap;html=1;" parent="O-xxoR6y4JepeyC2fcWW-44" vertex="1">
          <mxGeometry x="70" y="480" width="120" height="60" as="geometry" />
        </mxCell>
        <mxCell id="O-xxoR6y4JepeyC2fcWW-195" value="Benar?" style="rhombus;whiteSpace=wrap;html=1;" parent="O-xxoR6y4JepeyC2fcWW-44" vertex="1">
          <mxGeometry x="90" y="570" width="80" height="80" as="geometry" />
        </mxCell>
        <mxCell id="O-xxoR6y4JepeyC2fcWW-48" value="transfer" style="swimlane;whiteSpace=wrap;html=1;startSize=23;" parent="xOamFbycdJBBgBO8ghrL-5" vertex="1">
          <mxGeometry x="260" width="260" height="690" as="geometry" />
        </mxCell>
        <mxCell id="O-xxoR6y4JepeyC2fcWW-49" style="edgeStyle=orthogonalEdgeStyle;rounded=0;orthogonalLoop=1;jettySize=auto;html=1;exitX=0.5;exitY=1;exitDx=0;exitDy=0;entryX=0.5;entryY=0;entryDx=0;entryDy=0;" parent="O-xxoR6y4JepeyC2fcWW-48" edge="1">
          <mxGeometry relative="1" as="geometry">
            <mxPoint x="130" y="110" as="targetPoint" />
          </mxGeometry>
        </mxCell>
        <mxCell id="O-xxoR6y4JepeyC2fcWW-51" value="menampilkan menu transfer" style="rounded=1;whiteSpace=wrap;html=1;" parent="O-xxoR6y4JepeyC2fcWW-48" vertex="1">
          <mxGeometry x="70" y="110" width="120" height="60" as="geometry" />
        </mxCell>
        <mxCell id="O-xxoR6y4JepeyC2fcWW-59" style="edgeStyle=orthogonalEdgeStyle;rounded=0;orthogonalLoop=1;jettySize=auto;html=1;exitX=0.5;exitY=1;exitDx=0;exitDy=0;entryX=0.5;entryY=0;entryDx=0;entryDy=0;" parent="O-xxoR6y4JepeyC2fcWW-48" source="O-xxoR6y4JepeyC2fcWW-56" target="O-xxoR6y4JepeyC2fcWW-58" edge="1">
          <mxGeometry relative="1" as="geometry" />
        </mxCell>
        <mxCell id="O-xxoR6y4JepeyC2fcWW-56" value="memvalidasi nomor tujuan dan nominal" style="rounded=1;whiteSpace=wrap;html=1;" parent="O-xxoR6y4JepeyC2fcWW-48" vertex="1">
          <mxGeometry x="70" y="290" width="120" height="60" as="geometry" />
        </mxCell>
        <mxCell id="O-xxoR6y4JepeyC2fcWW-65" style="edgeStyle=orthogonalEdgeStyle;rounded=0;orthogonalLoop=1;jettySize=auto;html=1;exitX=0.5;exitY=1;exitDx=0;exitDy=0;entryX=0.5;entryY=0;entryDx=0;entryDy=0;" parent="O-xxoR6y4JepeyC2fcWW-48" source="O-xxoR6y4JepeyC2fcWW-58" target="O-xxoR6y4JepeyC2fcWW-60" edge="1">
          <mxGeometry relative="1" as="geometry" />
        </mxCell>
        <mxCell id="O-xxoR6y4JepeyC2fcWW-58" value="Benar?" style="rhombus;whiteSpace=wrap;html=1;" parent="O-xxoR6y4JepeyC2fcWW-48" vertex="1">
          <mxGeometry x="160" y="370" width="80" height="80" as="geometry" />
        </mxCell>
        <mxCell id="O-xxoR6y4JepeyC2fcWW-193" style="edgeStyle=orthogonalEdgeStyle;rounded=0;orthogonalLoop=1;jettySize=auto;html=1;exitX=0;exitY=0.5;exitDx=0;exitDy=0;" parent="O-xxoR6y4JepeyC2fcWW-48" source="O-xxoR6y4JepeyC2fcWW-60" edge="1">
          <mxGeometry relative="1" as="geometry">
            <mxPoint x="-70" y="520" as="targetPoint" />
          </mxGeometry>
        </mxCell>
        <mxCell id="O-xxoR6y4JepeyC2fcWW-60" value="sistem meminta validasi user" style="rounded=1;whiteSpace=wrap;html=1;" parent="O-xxoR6y4JepeyC2fcWW-48" vertex="1">
          <mxGeometry x="70" y="490" width="120" height="60" as="geometry" />
        </mxCell>
        <mxCell id="O-xxoR6y4JepeyC2fcWW-66" value="" style="ellipse;whiteSpace=wrap;html=1;aspect=fixed;" parent="O-xxoR6y4JepeyC2fcWW-48" vertex="1">
          <mxGeometry x="110" y="650" width="40" height="40" as="geometry" />
        </mxCell>
        <mxCell id="O-xxoR6y4JepeyC2fcWW-200" style="edgeStyle=orthogonalEdgeStyle;rounded=0;orthogonalLoop=1;jettySize=auto;html=1;exitX=0.5;exitY=1;exitDx=0;exitDy=0;entryX=0.5;entryY=0;entryDx=0;entryDy=0;" parent="O-xxoR6y4JepeyC2fcWW-48" source="O-xxoR6y4JepeyC2fcWW-196" target="O-xxoR6y4JepeyC2fcWW-66" edge="1">
          <mxGeometry relative="1" as="geometry" />
        </mxCell>
        <mxCell id="O-xxoR6y4JepeyC2fcWW-196" value="sistem melakukan transfer" style="rounded=1;whiteSpace=wrap;html=1;" parent="O-xxoR6y4JepeyC2fcWW-48" vertex="1">
          <mxGeometry x="70" y="570" width="120" height="60" as="geometry" />
        </mxCell>
        <mxCell id="O-xxoR6y4JepeyC2fcWW-61" value="menampilkan &quot;nomor tujuan tidak valid&quot;" style="rounded=1;whiteSpace=wrap;html=1;" parent="O-xxoR6y4JepeyC2fcWW-48" vertex="1">
          <mxGeometry x="10" y="380" width="120" height="60" as="geometry" />
        </mxCell>
        <mxCell id="O-xxoR6y4JepeyC2fcWW-63" style="edgeStyle=orthogonalEdgeStyle;rounded=0;orthogonalLoop=1;jettySize=auto;html=1;exitX=0;exitY=0.5;exitDx=0;exitDy=0;entryX=1;entryY=0.5;entryDx=0;entryDy=0;" parent="O-xxoR6y4JepeyC2fcWW-48" source="O-xxoR6y4JepeyC2fcWW-58" target="O-xxoR6y4JepeyC2fcWW-61" edge="1">
          <mxGeometry relative="1" as="geometry" />
        </mxCell>
        <mxCell id="O-xxoR6y4JepeyC2fcWW-53" style="edgeStyle=orthogonalEdgeStyle;rounded=0;orthogonalLoop=1;jettySize=auto;html=1;exitX=1;exitY=0.5;exitDx=0;exitDy=0;entryX=0;entryY=0.5;entryDx=0;entryDy=0;" parent="xOamFbycdJBBgBO8ghrL-5" source="O-xxoR6y4JepeyC2fcWW-45" target="O-xxoR6y4JepeyC2fcWW-51" edge="1">
          <mxGeometry relative="1" as="geometry" />
        </mxCell>
        <mxCell id="O-xxoR6y4JepeyC2fcWW-55" style="edgeStyle=orthogonalEdgeStyle;rounded=0;orthogonalLoop=1;jettySize=auto;html=1;exitX=0.5;exitY=1;exitDx=0;exitDy=0;entryX=1;entryY=0.5;entryDx=0;entryDy=0;" parent="xOamFbycdJBBgBO8ghrL-5" source="O-xxoR6y4JepeyC2fcWW-51" target="O-xxoR6y4JepeyC2fcWW-54" edge="1">
          <mxGeometry relative="1" as="geometry" />
        </mxCell>
        <mxCell id="O-xxoR6y4JepeyC2fcWW-57" style="edgeStyle=orthogonalEdgeStyle;rounded=0;orthogonalLoop=1;jettySize=auto;html=1;exitX=0.5;exitY=1;exitDx=0;exitDy=0;entryX=0;entryY=0.5;entryDx=0;entryDy=0;" parent="xOamFbycdJBBgBO8ghrL-5" source="O-xxoR6y4JepeyC2fcWW-54" target="O-xxoR6y4JepeyC2fcWW-56" edge="1">
          <mxGeometry relative="1" as="geometry" />
        </mxCell>
        <mxCell id="O-xxoR6y4JepeyC2fcWW-199" style="edgeStyle=orthogonalEdgeStyle;rounded=0;orthogonalLoop=1;jettySize=auto;html=1;exitX=1;exitY=0.5;exitDx=0;exitDy=0;entryX=0;entryY=0.5;entryDx=0;entryDy=0;" parent="xOamFbycdJBBgBO8ghrL-5" source="O-xxoR6y4JepeyC2fcWW-195" target="O-xxoR6y4JepeyC2fcWW-196" edge="1">
          <mxGeometry relative="1" as="geometry" />
        </mxCell>
        <mxCell id="O-xxoR6y4JepeyC2fcWW-64" style="edgeStyle=orthogonalEdgeStyle;rounded=0;orthogonalLoop=1;jettySize=auto;html=1;exitX=0;exitY=0.5;exitDx=0;exitDy=0;entryX=0;entryY=0.5;entryDx=0;entryDy=0;" parent="xOamFbycdJBBgBO8ghrL-5" source="O-xxoR6y4JepeyC2fcWW-61" target="O-xxoR6y4JepeyC2fcWW-54" edge="1">
          <mxGeometry relative="1" as="geometry" />
        </mxCell>
        <mxCell id="xOamFbycdJBBgBO8ghrL-6" value="" style="group" parent="O-xxoR6y4JepeyC2fcWW-512" vertex="1" connectable="0">
          <mxGeometry x="1200" y="515" width="520" height="640" as="geometry" />
        </mxCell>
        <mxCell id="O-xxoR6y4JepeyC2fcWW-68" value="top up" style="swimlane;whiteSpace=wrap;html=1;startSize=23;" parent="xOamFbycdJBBgBO8ghrL-6" vertex="1">
          <mxGeometry width="260" height="640" as="geometry" />
        </mxCell>
        <mxCell id="O-xxoR6y4JepeyC2fcWW-69" value="user memilih menu top-up" style="rounded=1;whiteSpace=wrap;html=1;" parent="O-xxoR6y4JepeyC2fcWW-68" vertex="1">
          <mxGeometry x="70" y="110" width="120" height="60" as="geometry" />
        </mxCell>
        <mxCell id="O-xxoR6y4JepeyC2fcWW-70" style="edgeStyle=orthogonalEdgeStyle;rounded=0;orthogonalLoop=1;jettySize=auto;html=1;exitX=0.5;exitY=1;exitDx=0;exitDy=0;entryX=0.5;entryY=0;entryDx=0;entryDy=0;" parent="O-xxoR6y4JepeyC2fcWW-68" source="O-xxoR6y4JepeyC2fcWW-71" target="O-xxoR6y4JepeyC2fcWW-69" edge="1">
          <mxGeometry relative="1" as="geometry" />
        </mxCell>
        <mxCell id="O-xxoR6y4JepeyC2fcWW-71" value="" style="ellipse;whiteSpace=wrap;html=1;aspect=fixed;" parent="O-xxoR6y4JepeyC2fcWW-68" vertex="1">
          <mxGeometry x="110" y="40" width="40" height="40" as="geometry" />
        </mxCell>
        <mxCell id="O-xxoR6y4JepeyC2fcWW-72" value="user memasukkan nominal yang diinginkan" style="rounded=1;whiteSpace=wrap;html=1;" parent="O-xxoR6y4JepeyC2fcWW-68" vertex="1">
          <mxGeometry x="70" y="210" width="120" height="60" as="geometry" />
        </mxCell>
        <mxCell id="O-xxoR6y4JepeyC2fcWW-87" style="edgeStyle=orthogonalEdgeStyle;rounded=0;orthogonalLoop=1;jettySize=auto;html=1;exitX=0;exitY=0.5;exitDx=0;exitDy=0;entryX=0;entryY=0.5;entryDx=0;entryDy=0;" parent="O-xxoR6y4JepeyC2fcWW-68" source="O-xxoR6y4JepeyC2fcWW-74" target="O-xxoR6y4JepeyC2fcWW-72" edge="1">
          <mxGeometry relative="1" as="geometry" />
        </mxCell>
        <mxCell id="O-xxoR6y4JepeyC2fcWW-259" style="edgeStyle=orthogonalEdgeStyle;rounded=0;orthogonalLoop=1;jettySize=auto;html=1;exitX=0.5;exitY=1;exitDx=0;exitDy=0;entryX=0.5;entryY=0;entryDx=0;entryDy=0;" parent="O-xxoR6y4JepeyC2fcWW-68" source="O-xxoR6y4JepeyC2fcWW-74" target="O-xxoR6y4JepeyC2fcWW-81" edge="1">
          <mxGeometry relative="1" as="geometry" />
        </mxCell>
        <mxCell id="O-xxoR6y4JepeyC2fcWW-74" value="memvalidasi" style="rounded=1;whiteSpace=wrap;html=1;" parent="O-xxoR6y4JepeyC2fcWW-68" vertex="1">
          <mxGeometry x="70" y="350" width="120" height="60" as="geometry" />
        </mxCell>
        <mxCell id="O-xxoR6y4JepeyC2fcWW-203" style="edgeStyle=orthogonalEdgeStyle;rounded=0;orthogonalLoop=1;jettySize=auto;html=1;exitX=0;exitY=0.5;exitDx=0;exitDy=0;entryX=0;entryY=0.5;entryDx=0;entryDy=0;" parent="O-xxoR6y4JepeyC2fcWW-68" source="O-xxoR6y4JepeyC2fcWW-81" target="O-xxoR6y4JepeyC2fcWW-69" edge="1">
          <mxGeometry relative="1" as="geometry">
            <Array as="points">
              <mxPoint x="30" y="470" />
              <mxPoint x="30" y="140" />
            </Array>
          </mxGeometry>
        </mxCell>
        <mxCell id="O-xxoR6y4JepeyC2fcWW-81" value="Benar?" style="rhombus;whiteSpace=wrap;html=1;" parent="O-xxoR6y4JepeyC2fcWW-68" vertex="1">
          <mxGeometry x="90" y="430" width="80" height="80" as="geometry" />
        </mxCell>
        <mxCell id="O-xxoR6y4JepeyC2fcWW-75" value="top up" style="swimlane;whiteSpace=wrap;html=1;startSize=23;" parent="xOamFbycdJBBgBO8ghrL-6" vertex="1">
          <mxGeometry x="260" width="260" height="640" as="geometry" />
        </mxCell>
        <mxCell id="O-xxoR6y4JepeyC2fcWW-76" style="edgeStyle=orthogonalEdgeStyle;rounded=0;orthogonalLoop=1;jettySize=auto;html=1;exitX=0.5;exitY=1;exitDx=0;exitDy=0;entryX=0.5;entryY=0;entryDx=0;entryDy=0;" parent="O-xxoR6y4JepeyC2fcWW-75" edge="1">
          <mxGeometry relative="1" as="geometry">
            <mxPoint x="130" y="110" as="targetPoint" />
          </mxGeometry>
        </mxCell>
        <mxCell id="O-xxoR6y4JepeyC2fcWW-77" value="menampilkan menu top-up" style="rounded=1;whiteSpace=wrap;html=1;" parent="O-xxoR6y4JepeyC2fcWW-75" vertex="1">
          <mxGeometry x="70" y="110" width="120" height="60" as="geometry" />
        </mxCell>
        <mxCell id="O-xxoR6y4JepeyC2fcWW-79" value="meminta validasi dari user" style="rounded=1;whiteSpace=wrap;html=1;" parent="O-xxoR6y4JepeyC2fcWW-75" vertex="1">
          <mxGeometry x="70" y="290" width="120" height="60" as="geometry" />
        </mxCell>
        <mxCell id="O-xxoR6y4JepeyC2fcWW-82" style="edgeStyle=orthogonalEdgeStyle;rounded=0;orthogonalLoop=1;jettySize=auto;html=1;exitX=0.5;exitY=1;exitDx=0;exitDy=0;entryX=0.5;entryY=0;entryDx=0;entryDy=0;" parent="O-xxoR6y4JepeyC2fcWW-75" source="O-xxoR6y4JepeyC2fcWW-83" target="O-xxoR6y4JepeyC2fcWW-84" edge="1">
          <mxGeometry relative="1" as="geometry" />
        </mxCell>
        <mxCell id="O-xxoR6y4JepeyC2fcWW-83" value="sistem melakukan transfer ke akun user" style="rounded=1;whiteSpace=wrap;html=1;" parent="O-xxoR6y4JepeyC2fcWW-75" vertex="1">
          <mxGeometry x="70" y="440" width="120" height="60" as="geometry" />
        </mxCell>
        <mxCell id="O-xxoR6y4JepeyC2fcWW-84" value="" style="ellipse;whiteSpace=wrap;html=1;aspect=fixed;" parent="O-xxoR6y4JepeyC2fcWW-75" vertex="1">
          <mxGeometry x="110" y="570" width="40" height="40" as="geometry" />
        </mxCell>
        <mxCell id="O-xxoR6y4JepeyC2fcWW-85" style="edgeStyle=orthogonalEdgeStyle;rounded=0;orthogonalLoop=1;jettySize=auto;html=1;exitX=0.5;exitY=1;exitDx=0;exitDy=0;entryX=1;entryY=0.5;entryDx=0;entryDy=0;" parent="xOamFbycdJBBgBO8ghrL-6" source="O-xxoR6y4JepeyC2fcWW-77" target="O-xxoR6y4JepeyC2fcWW-72" edge="1">
          <mxGeometry relative="1" as="geometry" />
        </mxCell>
        <mxCell id="O-xxoR6y4JepeyC2fcWW-201" style="edgeStyle=orthogonalEdgeStyle;rounded=0;orthogonalLoop=1;jettySize=auto;html=1;exitX=1;exitY=0.5;exitDx=0;exitDy=0;entryX=0;entryY=0.5;entryDx=0;entryDy=0;" parent="xOamFbycdJBBgBO8ghrL-6" source="O-xxoR6y4JepeyC2fcWW-69" target="O-xxoR6y4JepeyC2fcWW-77" edge="1">
          <mxGeometry relative="1" as="geometry" />
        </mxCell>
        <mxCell id="O-xxoR6y4JepeyC2fcWW-86" style="edgeStyle=orthogonalEdgeStyle;rounded=0;orthogonalLoop=1;jettySize=auto;html=1;exitX=0.5;exitY=1;exitDx=0;exitDy=0;entryX=0;entryY=0.5;entryDx=0;entryDy=0;" parent="xOamFbycdJBBgBO8ghrL-6" source="O-xxoR6y4JepeyC2fcWW-72" target="O-xxoR6y4JepeyC2fcWW-79" edge="1">
          <mxGeometry relative="1" as="geometry" />
        </mxCell>
        <mxCell id="O-xxoR6y4JepeyC2fcWW-204" style="edgeStyle=orthogonalEdgeStyle;rounded=0;orthogonalLoop=1;jettySize=auto;html=1;exitX=0.5;exitY=1;exitDx=0;exitDy=0;entryX=1;entryY=0.5;entryDx=0;entryDy=0;" parent="xOamFbycdJBBgBO8ghrL-6" source="O-xxoR6y4JepeyC2fcWW-79" target="O-xxoR6y4JepeyC2fcWW-74" edge="1">
          <mxGeometry relative="1" as="geometry" />
        </mxCell>
        <mxCell id="O-xxoR6y4JepeyC2fcWW-202" style="edgeStyle=orthogonalEdgeStyle;rounded=0;orthogonalLoop=1;jettySize=auto;html=1;exitX=1;exitY=0.5;exitDx=0;exitDy=0;entryX=0;entryY=0.5;entryDx=0;entryDy=0;" parent="xOamFbycdJBBgBO8ghrL-6" source="O-xxoR6y4JepeyC2fcWW-81" target="O-xxoR6y4JepeyC2fcWW-83" edge="1">
          <mxGeometry relative="1" as="geometry" />
        </mxCell>
        <mxCell id="xOamFbycdJBBgBO8ghrL-7" value="" style="group" parent="O-xxoR6y4JepeyC2fcWW-512" vertex="1" connectable="0">
          <mxGeometry x="1760" y="155" width="520" height="810" as="geometry" />
        </mxCell>
        <mxCell id="O-xxoR6y4JepeyC2fcWW-128" value="update profil" style="swimlane;whiteSpace=wrap;html=1;startSize=23;" parent="xOamFbycdJBBgBO8ghrL-7" vertex="1">
          <mxGeometry width="260" height="810" as="geometry" />
        </mxCell>
        <mxCell id="O-xxoR6y4JepeyC2fcWW-129" value="user memilih menu update profil" style="rounded=1;whiteSpace=wrap;html=1;" parent="O-xxoR6y4JepeyC2fcWW-128" vertex="1">
          <mxGeometry x="70" y="110" width="120" height="60" as="geometry" />
        </mxCell>
        <mxCell id="O-xxoR6y4JepeyC2fcWW-130" style="edgeStyle=orthogonalEdgeStyle;rounded=0;orthogonalLoop=1;jettySize=auto;html=1;exitX=0.5;exitY=1;exitDx=0;exitDy=0;entryX=0.5;entryY=0;entryDx=0;entryDy=0;" parent="O-xxoR6y4JepeyC2fcWW-128" source="O-xxoR6y4JepeyC2fcWW-131" target="O-xxoR6y4JepeyC2fcWW-129" edge="1">
          <mxGeometry relative="1" as="geometry" />
        </mxCell>
        <mxCell id="O-xxoR6y4JepeyC2fcWW-131" value="" style="ellipse;whiteSpace=wrap;html=1;aspect=fixed;" parent="O-xxoR6y4JepeyC2fcWW-128" vertex="1">
          <mxGeometry x="110" y="40" width="40" height="40" as="geometry" />
        </mxCell>
        <mxCell id="O-xxoR6y4JepeyC2fcWW-139" value="user memilih data yang ingin diupdate" style="rounded=1;whiteSpace=wrap;html=1;" parent="O-xxoR6y4JepeyC2fcWW-128" vertex="1">
          <mxGeometry x="70" y="210" width="120" height="60" as="geometry" />
        </mxCell>
        <mxCell id="O-xxoR6y4JepeyC2fcWW-143" value="memasukkan data baru" style="rounded=1;whiteSpace=wrap;html=1;" parent="O-xxoR6y4JepeyC2fcWW-128" vertex="1">
          <mxGeometry x="70" y="340" width="120" height="60" as="geometry" />
        </mxCell>
        <mxCell id="O-xxoR6y4JepeyC2fcWW-148" value="" style="rhombus;whiteSpace=wrap;html=1;" parent="O-xxoR6y4JepeyC2fcWW-128" vertex="1">
          <mxGeometry x="90" y="590" width="80" height="80" as="geometry" />
        </mxCell>
        <mxCell id="O-xxoR6y4JepeyC2fcWW-150" style="edgeStyle=orthogonalEdgeStyle;rounded=0;orthogonalLoop=1;jettySize=auto;html=1;exitX=0.5;exitY=1;exitDx=0;exitDy=0;entryX=0.5;entryY=0;entryDx=0;entryDy=0;" parent="O-xxoR6y4JepeyC2fcWW-128" source="O-xxoR6y4JepeyC2fcWW-147" target="O-xxoR6y4JepeyC2fcWW-148" edge="1">
          <mxGeometry relative="1" as="geometry" />
        </mxCell>
        <mxCell id="O-xxoR6y4JepeyC2fcWW-147" value="melakukan validasi" style="rounded=1;whiteSpace=wrap;html=1;" parent="O-xxoR6y4JepeyC2fcWW-128" vertex="1">
          <mxGeometry x="70" y="490" width="120" height="60" as="geometry" />
        </mxCell>
        <mxCell id="O-xxoR6y4JepeyC2fcWW-132" value="update profil" style="swimlane;whiteSpace=wrap;html=1;startSize=23;" parent="xOamFbycdJBBgBO8ghrL-7" vertex="1">
          <mxGeometry x="260" width="260" height="810" as="geometry" />
        </mxCell>
        <mxCell id="O-xxoR6y4JepeyC2fcWW-133" style="edgeStyle=orthogonalEdgeStyle;rounded=0;orthogonalLoop=1;jettySize=auto;html=1;exitX=0.5;exitY=1;exitDx=0;exitDy=0;entryX=0.5;entryY=0;entryDx=0;entryDy=0;" parent="O-xxoR6y4JepeyC2fcWW-132" edge="1">
          <mxGeometry relative="1" as="geometry">
            <mxPoint x="130" y="110" as="targetPoint" />
          </mxGeometry>
        </mxCell>
        <mxCell id="O-xxoR6y4JepeyC2fcWW-135" value="sistem menampilkan menu update profil" style="rounded=1;whiteSpace=wrap;html=1;" parent="O-xxoR6y4JepeyC2fcWW-132" vertex="1">
          <mxGeometry x="70" y="110" width="120" height="60" as="geometry" />
        </mxCell>
        <mxCell id="O-xxoR6y4JepeyC2fcWW-141" value="sistem menampilkan inputan untuk data baru" style="rounded=1;whiteSpace=wrap;html=1;" parent="O-xxoR6y4JepeyC2fcWW-132" vertex="1">
          <mxGeometry x="70" y="270" width="120" height="60" as="geometry" />
        </mxCell>
        <mxCell id="O-xxoR6y4JepeyC2fcWW-145" value="meminta validasi user" style="rounded=1;whiteSpace=wrap;html=1;" parent="O-xxoR6y4JepeyC2fcWW-132" vertex="1">
          <mxGeometry x="70" y="420" width="120" height="60" as="geometry" />
        </mxCell>
        <mxCell id="O-xxoR6y4JepeyC2fcWW-155" style="edgeStyle=orthogonalEdgeStyle;rounded=0;orthogonalLoop=1;jettySize=auto;html=1;exitX=0.5;exitY=1;exitDx=0;exitDy=0;entryX=0.5;entryY=0;entryDx=0;entryDy=0;" parent="O-xxoR6y4JepeyC2fcWW-132" source="O-xxoR6y4JepeyC2fcWW-151" target="O-xxoR6y4JepeyC2fcWW-154" edge="1">
          <mxGeometry relative="1" as="geometry" />
        </mxCell>
        <mxCell id="O-xxoR6y4JepeyC2fcWW-151" value="sistem menyimpan data baru" style="rounded=1;whiteSpace=wrap;html=1;" parent="O-xxoR6y4JepeyC2fcWW-132" vertex="1">
          <mxGeometry x="70" y="600" width="120" height="60" as="geometry" />
        </mxCell>
        <mxCell id="O-xxoR6y4JepeyC2fcWW-154" value="" style="ellipse;whiteSpace=wrap;html=1;aspect=fixed;" parent="O-xxoR6y4JepeyC2fcWW-132" vertex="1">
          <mxGeometry x="110" y="710" width="40" height="40" as="geometry" />
        </mxCell>
        <mxCell id="O-xxoR6y4JepeyC2fcWW-137" style="edgeStyle=orthogonalEdgeStyle;rounded=0;orthogonalLoop=1;jettySize=auto;html=1;exitX=1;exitY=0.5;exitDx=0;exitDy=0;entryX=0;entryY=0.5;entryDx=0;entryDy=0;" parent="xOamFbycdJBBgBO8ghrL-7" source="O-xxoR6y4JepeyC2fcWW-129" target="O-xxoR6y4JepeyC2fcWW-135" edge="1">
          <mxGeometry relative="1" as="geometry" />
        </mxCell>
        <mxCell id="O-xxoR6y4JepeyC2fcWW-140" style="edgeStyle=orthogonalEdgeStyle;rounded=0;orthogonalLoop=1;jettySize=auto;html=1;exitX=0.5;exitY=1;exitDx=0;exitDy=0;entryX=1;entryY=0.5;entryDx=0;entryDy=0;" parent="xOamFbycdJBBgBO8ghrL-7" source="O-xxoR6y4JepeyC2fcWW-135" target="O-xxoR6y4JepeyC2fcWW-139" edge="1">
          <mxGeometry relative="1" as="geometry" />
        </mxCell>
        <mxCell id="O-xxoR6y4JepeyC2fcWW-142" style="edgeStyle=orthogonalEdgeStyle;rounded=0;orthogonalLoop=1;jettySize=auto;html=1;exitX=0.5;exitY=1;exitDx=0;exitDy=0;entryX=0;entryY=0.5;entryDx=0;entryDy=0;" parent="xOamFbycdJBBgBO8ghrL-7" source="O-xxoR6y4JepeyC2fcWW-139" target="O-xxoR6y4JepeyC2fcWW-141" edge="1">
          <mxGeometry relative="1" as="geometry" />
        </mxCell>
        <mxCell id="O-xxoR6y4JepeyC2fcWW-144" style="edgeStyle=orthogonalEdgeStyle;rounded=0;orthogonalLoop=1;jettySize=auto;html=1;exitX=0.5;exitY=1;exitDx=0;exitDy=0;entryX=1;entryY=0.5;entryDx=0;entryDy=0;" parent="xOamFbycdJBBgBO8ghrL-7" source="O-xxoR6y4JepeyC2fcWW-141" target="O-xxoR6y4JepeyC2fcWW-143" edge="1">
          <mxGeometry relative="1" as="geometry" />
        </mxCell>
        <mxCell id="O-xxoR6y4JepeyC2fcWW-146" style="edgeStyle=orthogonalEdgeStyle;rounded=0;orthogonalLoop=1;jettySize=auto;html=1;exitX=0.5;exitY=1;exitDx=0;exitDy=0;entryX=0;entryY=0.5;entryDx=0;entryDy=0;" parent="xOamFbycdJBBgBO8ghrL-7" source="O-xxoR6y4JepeyC2fcWW-143" target="O-xxoR6y4JepeyC2fcWW-145" edge="1">
          <mxGeometry relative="1" as="geometry" />
        </mxCell>
        <mxCell id="O-xxoR6y4JepeyC2fcWW-149" style="edgeStyle=orthogonalEdgeStyle;rounded=0;orthogonalLoop=1;jettySize=auto;html=1;exitX=0.5;exitY=1;exitDx=0;exitDy=0;entryX=1;entryY=0.5;entryDx=0;entryDy=0;" parent="xOamFbycdJBBgBO8ghrL-7" source="O-xxoR6y4JepeyC2fcWW-145" target="O-xxoR6y4JepeyC2fcWW-147" edge="1">
          <mxGeometry relative="1" as="geometry" />
        </mxCell>
        <mxCell id="O-xxoR6y4JepeyC2fcWW-152" style="edgeStyle=orthogonalEdgeStyle;rounded=0;orthogonalLoop=1;jettySize=auto;html=1;exitX=1;exitY=0.5;exitDx=0;exitDy=0;entryX=0;entryY=0.5;entryDx=0;entryDy=0;" parent="xOamFbycdJBBgBO8ghrL-7" source="O-xxoR6y4JepeyC2fcWW-148" target="O-xxoR6y4JepeyC2fcWW-151" edge="1">
          <mxGeometry relative="1" as="geometry" />
        </mxCell>
        <mxCell id="O-xxoR6y4JepeyC2fcWW-177" value="Yes" style="edgeLabel;html=1;align=center;verticalAlign=middle;resizable=0;points=[];" parent="O-xxoR6y4JepeyC2fcWW-152" vertex="1" connectable="0">
          <mxGeometry x="-0.4625" y="-1" relative="1" as="geometry">
            <mxPoint as="offset" />
          </mxGeometry>
        </mxCell>
        <mxCell id="xOamFbycdJBBgBO8ghrL-9" style="edgeStyle=orthogonalEdgeStyle;rounded=0;orthogonalLoop=1;jettySize=auto;html=1;exitX=0.5;exitY=1;exitDx=0;exitDy=0;entryX=1;entryY=0.25;entryDx=0;entryDy=0;" parent="xOamFbycdJBBgBO8ghrL-7" source="O-xxoR6y4JepeyC2fcWW-148" target="O-xxoR6y4JepeyC2fcWW-135" edge="1">
          <mxGeometry relative="1" as="geometry">
            <Array as="points">
              <mxPoint x="130" y="770" />
              <mxPoint x="480" y="770" />
              <mxPoint x="480" y="125" />
            </Array>
          </mxGeometry>
        </mxCell>
        <mxCell id="xOamFbycdJBBgBO8ghrL-10" value="" style="group" parent="O-xxoR6y4JepeyC2fcWW-512" vertex="1" connectable="0">
          <mxGeometry x="1760" y="1035" width="520" height="310" as="geometry" />
        </mxCell>
        <mxCell id="O-xxoR6y4JepeyC2fcWW-118" value="history top-up" style="swimlane;whiteSpace=wrap;html=1;startSize=23;" parent="xOamFbycdJBBgBO8ghrL-10" vertex="1">
          <mxGeometry width="260" height="310" as="geometry" />
        </mxCell>
        <mxCell id="O-xxoR6y4JepeyC2fcWW-119" value="user memilih menu lihat history top-up" style="rounded=1;whiteSpace=wrap;html=1;" parent="O-xxoR6y4JepeyC2fcWW-118" vertex="1">
          <mxGeometry x="70" y="110" width="120" height="60" as="geometry" />
        </mxCell>
        <mxCell id="O-xxoR6y4JepeyC2fcWW-120" style="edgeStyle=orthogonalEdgeStyle;rounded=0;orthogonalLoop=1;jettySize=auto;html=1;exitX=0.5;exitY=1;exitDx=0;exitDy=0;entryX=0.5;entryY=0;entryDx=0;entryDy=0;" parent="O-xxoR6y4JepeyC2fcWW-118" source="O-xxoR6y4JepeyC2fcWW-121" target="O-xxoR6y4JepeyC2fcWW-119" edge="1">
          <mxGeometry relative="1" as="geometry" />
        </mxCell>
        <mxCell id="O-xxoR6y4JepeyC2fcWW-121" value="" style="ellipse;whiteSpace=wrap;html=1;aspect=fixed;" parent="O-xxoR6y4JepeyC2fcWW-118" vertex="1">
          <mxGeometry x="110" y="40" width="40" height="40" as="geometry" />
        </mxCell>
        <mxCell id="O-xxoR6y4JepeyC2fcWW-122" value="history top-up" style="swimlane;whiteSpace=wrap;html=1;startSize=23;" parent="xOamFbycdJBBgBO8ghrL-10" vertex="1">
          <mxGeometry x="260" width="260" height="310" as="geometry" />
        </mxCell>
        <mxCell id="O-xxoR6y4JepeyC2fcWW-123" style="edgeStyle=orthogonalEdgeStyle;rounded=0;orthogonalLoop=1;jettySize=auto;html=1;exitX=0.5;exitY=1;exitDx=0;exitDy=0;entryX=0.5;entryY=0;entryDx=0;entryDy=0;" parent="O-xxoR6y4JepeyC2fcWW-122" edge="1">
          <mxGeometry relative="1" as="geometry">
            <mxPoint x="130" y="110" as="targetPoint" />
          </mxGeometry>
        </mxCell>
        <mxCell id="O-xxoR6y4JepeyC2fcWW-124" style="edgeStyle=orthogonalEdgeStyle;rounded=0;orthogonalLoop=1;jettySize=auto;html=1;exitX=0.5;exitY=1;exitDx=0;exitDy=0;entryX=0.5;entryY=0;entryDx=0;entryDy=0;" parent="O-xxoR6y4JepeyC2fcWW-122" source="O-xxoR6y4JepeyC2fcWW-125" target="O-xxoR6y4JepeyC2fcWW-126" edge="1">
          <mxGeometry relative="1" as="geometry" />
        </mxCell>
        <mxCell id="O-xxoR6y4JepeyC2fcWW-125" value="menampilkan data history top-up user" style="rounded=1;whiteSpace=wrap;html=1;" parent="O-xxoR6y4JepeyC2fcWW-122" vertex="1">
          <mxGeometry x="70" y="110" width="120" height="60" as="geometry" />
        </mxCell>
        <mxCell id="O-xxoR6y4JepeyC2fcWW-126" value="" style="ellipse;whiteSpace=wrap;html=1;aspect=fixed;" parent="O-xxoR6y4JepeyC2fcWW-122" vertex="1">
          <mxGeometry x="110" y="220" width="40" height="40" as="geometry" />
        </mxCell>
        <mxCell id="O-xxoR6y4JepeyC2fcWW-127" style="edgeStyle=orthogonalEdgeStyle;rounded=0;orthogonalLoop=1;jettySize=auto;html=1;exitX=1;exitY=0.5;exitDx=0;exitDy=0;entryX=0;entryY=0.5;entryDx=0;entryDy=0;" parent="xOamFbycdJBBgBO8ghrL-10" source="O-xxoR6y4JepeyC2fcWW-119" target="O-xxoR6y4JepeyC2fcWW-125" edge="1">
          <mxGeometry relative="1" as="geometry" />
        </mxCell>
        <mxCell id="xOamFbycdJBBgBO8ghrL-11" value="" style="group" parent="O-xxoR6y4JepeyC2fcWW-512" vertex="1" connectable="0">
          <mxGeometry x="2320" y="155" width="520" height="500" as="geometry" />
        </mxCell>
        <mxCell id="O-xxoR6y4JepeyC2fcWW-156" value="delete data user" style="swimlane;whiteSpace=wrap;html=1;startSize=23;" parent="xOamFbycdJBBgBO8ghrL-11" vertex="1">
          <mxGeometry width="260" height="500" as="geometry" />
        </mxCell>
        <mxCell id="O-xxoR6y4JepeyC2fcWW-157" value="user memilih menu delete data user" style="rounded=1;whiteSpace=wrap;html=1;" parent="O-xxoR6y4JepeyC2fcWW-156" vertex="1">
          <mxGeometry x="70" y="110" width="120" height="60" as="geometry" />
        </mxCell>
        <mxCell id="O-xxoR6y4JepeyC2fcWW-158" style="edgeStyle=orthogonalEdgeStyle;rounded=0;orthogonalLoop=1;jettySize=auto;html=1;exitX=0.5;exitY=1;exitDx=0;exitDy=0;entryX=0.5;entryY=0;entryDx=0;entryDy=0;" parent="O-xxoR6y4JepeyC2fcWW-156" source="O-xxoR6y4JepeyC2fcWW-159" target="O-xxoR6y4JepeyC2fcWW-157" edge="1">
          <mxGeometry relative="1" as="geometry" />
        </mxCell>
        <mxCell id="O-xxoR6y4JepeyC2fcWW-159" value="" style="ellipse;whiteSpace=wrap;html=1;aspect=fixed;" parent="O-xxoR6y4JepeyC2fcWW-156" vertex="1">
          <mxGeometry x="110" y="40" width="40" height="40" as="geometry" />
        </mxCell>
        <mxCell id="O-xxoR6y4JepeyC2fcWW-170" style="edgeStyle=orthogonalEdgeStyle;rounded=0;orthogonalLoop=1;jettySize=auto;html=1;exitX=0.5;exitY=1;exitDx=0;exitDy=0;entryX=0.5;entryY=0;entryDx=0;entryDy=0;" parent="O-xxoR6y4JepeyC2fcWW-156" source="O-xxoR6y4JepeyC2fcWW-165" target="O-xxoR6y4JepeyC2fcWW-166" edge="1">
          <mxGeometry relative="1" as="geometry" />
        </mxCell>
        <mxCell id="O-xxoR6y4JepeyC2fcWW-165" value="user melakukan validasi" style="rounded=1;whiteSpace=wrap;html=1;" parent="O-xxoR6y4JepeyC2fcWW-156" vertex="1">
          <mxGeometry x="70" y="210" width="120" height="60" as="geometry" />
        </mxCell>
        <mxCell id="O-xxoR6y4JepeyC2fcWW-173" style="edgeStyle=orthogonalEdgeStyle;rounded=0;orthogonalLoop=1;jettySize=auto;html=1;exitX=0;exitY=0.5;exitDx=0;exitDy=0;entryX=0;entryY=0.5;entryDx=0;entryDy=0;" parent="O-xxoR6y4JepeyC2fcWW-156" source="O-xxoR6y4JepeyC2fcWW-166" target="O-xxoR6y4JepeyC2fcWW-157" edge="1">
          <mxGeometry relative="1" as="geometry">
            <Array as="points">
              <mxPoint x="30" y="360" />
              <mxPoint x="30" y="140" />
            </Array>
          </mxGeometry>
        </mxCell>
        <mxCell id="O-xxoR6y4JepeyC2fcWW-175" value="No" style="edgeLabel;html=1;align=center;verticalAlign=middle;resizable=0;points=[];" parent="O-xxoR6y4JepeyC2fcWW-173" vertex="1" connectable="0">
          <mxGeometry x="-0.3876" relative="1" as="geometry">
            <mxPoint as="offset" />
          </mxGeometry>
        </mxCell>
        <mxCell id="O-xxoR6y4JepeyC2fcWW-166" value="" style="rhombus;whiteSpace=wrap;html=1;" parent="O-xxoR6y4JepeyC2fcWW-156" vertex="1">
          <mxGeometry x="90" y="320" width="80" height="80" as="geometry" />
        </mxCell>
        <mxCell id="O-xxoR6y4JepeyC2fcWW-160" value="delete data user" style="swimlane;whiteSpace=wrap;html=1;startSize=23;" parent="xOamFbycdJBBgBO8ghrL-11" vertex="1">
          <mxGeometry x="260" width="260" height="500" as="geometry" />
        </mxCell>
        <mxCell id="O-xxoR6y4JepeyC2fcWW-161" style="edgeStyle=orthogonalEdgeStyle;rounded=0;orthogonalLoop=1;jettySize=auto;html=1;exitX=0.5;exitY=1;exitDx=0;exitDy=0;entryX=0.5;entryY=0;entryDx=0;entryDy=0;" parent="O-xxoR6y4JepeyC2fcWW-160" edge="1">
          <mxGeometry relative="1" as="geometry">
            <mxPoint x="130" y="110" as="targetPoint" />
          </mxGeometry>
        </mxCell>
        <mxCell id="O-xxoR6y4JepeyC2fcWW-163" value="sistem meminta validasi user" style="rounded=1;whiteSpace=wrap;html=1;" parent="O-xxoR6y4JepeyC2fcWW-160" vertex="1">
          <mxGeometry x="70" y="110" width="120" height="60" as="geometry" />
        </mxCell>
        <mxCell id="O-xxoR6y4JepeyC2fcWW-168" style="edgeStyle=orthogonalEdgeStyle;rounded=0;orthogonalLoop=1;jettySize=auto;html=1;exitX=0.5;exitY=1;exitDx=0;exitDy=0;entryX=0.5;entryY=0;entryDx=0;entryDy=0;" parent="O-xxoR6y4JepeyC2fcWW-160" source="O-xxoR6y4JepeyC2fcWW-167" target="O-xxoR6y4JepeyC2fcWW-164" edge="1">
          <mxGeometry relative="1" as="geometry" />
        </mxCell>
        <mxCell id="O-xxoR6y4JepeyC2fcWW-167" value="sistem menambahkan data delete_at ke user" style="rounded=1;whiteSpace=wrap;html=1;" parent="O-xxoR6y4JepeyC2fcWW-160" vertex="1">
          <mxGeometry x="70" y="330" width="120" height="60" as="geometry" />
        </mxCell>
        <mxCell id="O-xxoR6y4JepeyC2fcWW-164" value="" style="ellipse;whiteSpace=wrap;html=1;aspect=fixed;" parent="O-xxoR6y4JepeyC2fcWW-160" vertex="1">
          <mxGeometry x="110" y="420" width="40" height="40" as="geometry" />
        </mxCell>
        <mxCell id="O-xxoR6y4JepeyC2fcWW-171" style="edgeStyle=orthogonalEdgeStyle;rounded=0;orthogonalLoop=1;jettySize=auto;html=1;exitX=1;exitY=0.5;exitDx=0;exitDy=0;entryX=-0.032;entryY=0.531;entryDx=0;entryDy=0;entryPerimeter=0;" parent="xOamFbycdJBBgBO8ghrL-11" source="O-xxoR6y4JepeyC2fcWW-157" target="O-xxoR6y4JepeyC2fcWW-163" edge="1">
          <mxGeometry relative="1" as="geometry" />
        </mxCell>
        <mxCell id="O-xxoR6y4JepeyC2fcWW-172" style="edgeStyle=orthogonalEdgeStyle;rounded=0;orthogonalLoop=1;jettySize=auto;html=1;exitX=0.5;exitY=1;exitDx=0;exitDy=0;entryX=1;entryY=0.5;entryDx=0;entryDy=0;" parent="xOamFbycdJBBgBO8ghrL-11" source="O-xxoR6y4JepeyC2fcWW-163" target="O-xxoR6y4JepeyC2fcWW-165" edge="1">
          <mxGeometry relative="1" as="geometry" />
        </mxCell>
        <mxCell id="O-xxoR6y4JepeyC2fcWW-169" style="edgeStyle=orthogonalEdgeStyle;rounded=0;orthogonalLoop=1;jettySize=auto;html=1;exitX=1;exitY=0.5;exitDx=0;exitDy=0;entryX=0;entryY=0.5;entryDx=0;entryDy=0;" parent="xOamFbycdJBBgBO8ghrL-11" source="O-xxoR6y4JepeyC2fcWW-166" target="O-xxoR6y4JepeyC2fcWW-167" edge="1">
          <mxGeometry relative="1" as="geometry" />
        </mxCell>
        <mxCell id="O-xxoR6y4JepeyC2fcWW-174" value="Yes" style="edgeLabel;html=1;align=center;verticalAlign=middle;resizable=0;points=[];" parent="O-xxoR6y4JepeyC2fcWW-169" vertex="1" connectable="0">
          <mxGeometry x="-0.2901" y="-2" relative="1" as="geometry">
            <mxPoint as="offset" />
          </mxGeometry>
        </mxCell>
        <mxCell id="xOamFbycdJBBgBO8ghrL-12" value="" style="group" parent="O-xxoR6y4JepeyC2fcWW-512" vertex="1" connectable="0">
          <mxGeometry x="2320" y="705" width="520" height="310" as="geometry" />
        </mxCell>
        <mxCell id="O-xxoR6y4JepeyC2fcWW-182" value="read profil" style="swimlane;whiteSpace=wrap;html=1;startSize=23;" parent="xOamFbycdJBBgBO8ghrL-12" vertex="1">
          <mxGeometry width="260" height="310" as="geometry" />
        </mxCell>
        <mxCell id="O-xxoR6y4JepeyC2fcWW-183" value="user memilih menu read profil" style="rounded=1;whiteSpace=wrap;html=1;" parent="O-xxoR6y4JepeyC2fcWW-182" vertex="1">
          <mxGeometry x="70" y="110" width="120" height="60" as="geometry" />
        </mxCell>
        <mxCell id="O-xxoR6y4JepeyC2fcWW-184" style="edgeStyle=orthogonalEdgeStyle;rounded=0;orthogonalLoop=1;jettySize=auto;html=1;exitX=0.5;exitY=1;exitDx=0;exitDy=0;entryX=0.5;entryY=0;entryDx=0;entryDy=0;" parent="O-xxoR6y4JepeyC2fcWW-182" source="O-xxoR6y4JepeyC2fcWW-185" target="O-xxoR6y4JepeyC2fcWW-183" edge="1">
          <mxGeometry relative="1" as="geometry" />
        </mxCell>
        <mxCell id="O-xxoR6y4JepeyC2fcWW-185" value="" style="ellipse;whiteSpace=wrap;html=1;aspect=fixed;" parent="O-xxoR6y4JepeyC2fcWW-182" vertex="1">
          <mxGeometry x="110" y="40" width="40" height="40" as="geometry" />
        </mxCell>
        <mxCell id="O-xxoR6y4JepeyC2fcWW-186" value="history top-up" style="swimlane;whiteSpace=wrap;html=1;startSize=23;" parent="xOamFbycdJBBgBO8ghrL-12" vertex="1">
          <mxGeometry x="260" width="260" height="310" as="geometry" />
        </mxCell>
        <mxCell id="O-xxoR6y4JepeyC2fcWW-187" style="edgeStyle=orthogonalEdgeStyle;rounded=0;orthogonalLoop=1;jettySize=auto;html=1;exitX=0.5;exitY=1;exitDx=0;exitDy=0;entryX=0.5;entryY=0;entryDx=0;entryDy=0;" parent="O-xxoR6y4JepeyC2fcWW-186" edge="1">
          <mxGeometry relative="1" as="geometry">
            <mxPoint x="130" y="110" as="targetPoint" />
          </mxGeometry>
        </mxCell>
        <mxCell id="O-xxoR6y4JepeyC2fcWW-188" style="edgeStyle=orthogonalEdgeStyle;rounded=0;orthogonalLoop=1;jettySize=auto;html=1;exitX=0.5;exitY=1;exitDx=0;exitDy=0;entryX=0.5;entryY=0;entryDx=0;entryDy=0;" parent="O-xxoR6y4JepeyC2fcWW-186" source="O-xxoR6y4JepeyC2fcWW-189" target="O-xxoR6y4JepeyC2fcWW-190" edge="1">
          <mxGeometry relative="1" as="geometry" />
        </mxCell>
        <mxCell id="O-xxoR6y4JepeyC2fcWW-189" value="sistem menampilkan profil user" style="rounded=1;whiteSpace=wrap;html=1;" parent="O-xxoR6y4JepeyC2fcWW-186" vertex="1">
          <mxGeometry x="70" y="110" width="120" height="60" as="geometry" />
        </mxCell>
        <mxCell id="O-xxoR6y4JepeyC2fcWW-190" value="" style="ellipse;whiteSpace=wrap;html=1;aspect=fixed;" parent="O-xxoR6y4JepeyC2fcWW-186" vertex="1">
          <mxGeometry x="110" y="220" width="40" height="40" as="geometry" />
        </mxCell>
        <mxCell id="O-xxoR6y4JepeyC2fcWW-191" style="edgeStyle=orthogonalEdgeStyle;rounded=0;orthogonalLoop=1;jettySize=auto;html=1;exitX=1;exitY=0.5;exitDx=0;exitDy=0;entryX=0;entryY=0.5;entryDx=0;entryDy=0;" parent="xOamFbycdJBBgBO8ghrL-12" source="O-xxoR6y4JepeyC2fcWW-183" target="O-xxoR6y4JepeyC2fcWW-189" edge="1">
          <mxGeometry relative="1" as="geometry" />
        </mxCell>
        <mxCell id="xOamFbycdJBBgBO8ghrL-13" value="&lt;font style=&quot;font-size: 20px;&quot;&gt;Vertical Container&lt;/font&gt;" style="swimlane;whiteSpace=wrap;html=1;strokeWidth=3;startSize=50;" parent="1" vertex="1">
          <mxGeometry x="3290" y="-960" width="2000" height="1950" as="geometry" />
        </mxCell>
        <mxCell id="O-xxoR6y4JepeyC2fcWW-213" value="Register" style="swimlane;whiteSpace=wrap;html=1;startSize=23;" parent="xOamFbycdJBBgBO8ghrL-13" vertex="1">
          <mxGeometry x="280" y="80" width="190" height="170" as="geometry" />
        </mxCell>
        <mxCell id="O-xxoR6y4JepeyC2fcWW-214" style="edgeStyle=orthogonalEdgeStyle;rounded=0;orthogonalLoop=1;jettySize=auto;html=1;exitX=0.5;exitY=1;exitDx=0;exitDy=0;entryX=0.5;entryY=0;entryDx=0;entryDy=0;" parent="O-xxoR6y4JepeyC2fcWW-213" edge="1">
          <mxGeometry relative="1" as="geometry">
            <mxPoint x="130" y="110" as="targetPoint" />
          </mxGeometry>
        </mxCell>
        <mxCell id="O-xxoR6y4JepeyC2fcWW-218" style="edgeStyle=orthogonalEdgeStyle;rounded=0;orthogonalLoop=1;jettySize=auto;html=1;exitX=0.5;exitY=1;exitDx=0;exitDy=0;entryX=0.5;entryY=0;entryDx=0;entryDy=0;" parent="O-xxoR6y4JepeyC2fcWW-213" edge="1">
          <mxGeometry relative="1" as="geometry">
            <mxPoint x="130" y="660" as="sourcePoint" />
          </mxGeometry>
        </mxCell>
        <mxCell id="O-xxoR6y4JepeyC2fcWW-221" value="Masukkan data:" style="text;html=1;strokeColor=none;fillColor=none;align=center;verticalAlign=middle;whiteSpace=wrap;rounded=0;" parent="O-xxoR6y4JepeyC2fcWW-213" vertex="1">
          <mxGeometry y="50" width="190" height="30" as="geometry" />
        </mxCell>
        <mxCell id="O-xxoR6y4JepeyC2fcWW-222" value="Nama:&lt;br&gt;Email:&lt;br&gt;No-Telp:&lt;br&gt;Password:" style="text;html=1;strokeColor=none;fillColor=none;align=center;verticalAlign=middle;whiteSpace=wrap;rounded=0;" parent="O-xxoR6y4JepeyC2fcWW-213" vertex="1">
          <mxGeometry y="80" width="190" height="70" as="geometry" />
        </mxCell>
        <mxCell id="O-xxoR6y4JepeyC2fcWW-223" value="Login" style="swimlane;whiteSpace=wrap;html=1;startSize=23;" parent="xOamFbycdJBBgBO8ghrL-13" vertex="1">
          <mxGeometry x="280" y="320" width="190" height="100" as="geometry" />
        </mxCell>
        <mxCell id="O-xxoR6y4JepeyC2fcWW-224" style="edgeStyle=orthogonalEdgeStyle;rounded=0;orthogonalLoop=1;jettySize=auto;html=1;exitX=0.5;exitY=1;exitDx=0;exitDy=0;entryX=0.5;entryY=0;entryDx=0;entryDy=0;" parent="O-xxoR6y4JepeyC2fcWW-223" edge="1">
          <mxGeometry relative="1" as="geometry">
            <mxPoint x="130" y="110" as="targetPoint" />
          </mxGeometry>
        </mxCell>
        <mxCell id="O-xxoR6y4JepeyC2fcWW-225" style="edgeStyle=orthogonalEdgeStyle;rounded=0;orthogonalLoop=1;jettySize=auto;html=1;exitX=0.5;exitY=1;exitDx=0;exitDy=0;entryX=0.5;entryY=0;entryDx=0;entryDy=0;" parent="O-xxoR6y4JepeyC2fcWW-223" edge="1">
          <mxGeometry relative="1" as="geometry">
            <mxPoint x="130" y="660" as="sourcePoint" />
          </mxGeometry>
        </mxCell>
        <mxCell id="O-xxoR6y4JepeyC2fcWW-226" value="No_telp:&lt;br&gt;Password :" style="text;html=1;strokeColor=none;fillColor=none;align=center;verticalAlign=middle;whiteSpace=wrap;rounded=0;" parent="O-xxoR6y4JepeyC2fcWW-223" vertex="1">
          <mxGeometry y="50" width="190" height="30" as="geometry" />
        </mxCell>
        <mxCell id="O-xxoR6y4JepeyC2fcWW-264" value="Pembuka" style="swimlane;whiteSpace=wrap;html=1;startSize=23;" parent="xOamFbycdJBBgBO8ghrL-13" vertex="1">
          <mxGeometry x="40" y="80" width="190" height="175" as="geometry" />
        </mxCell>
        <mxCell id="O-xxoR6y4JepeyC2fcWW-265" style="edgeStyle=orthogonalEdgeStyle;rounded=0;orthogonalLoop=1;jettySize=auto;html=1;exitX=0.5;exitY=1;exitDx=0;exitDy=0;entryX=0.5;entryY=0;entryDx=0;entryDy=0;" parent="O-xxoR6y4JepeyC2fcWW-264" edge="1">
          <mxGeometry relative="1" as="geometry">
            <mxPoint x="130" y="110" as="targetPoint" />
          </mxGeometry>
        </mxCell>
        <mxCell id="O-xxoR6y4JepeyC2fcWW-266" style="edgeStyle=orthogonalEdgeStyle;rounded=0;orthogonalLoop=1;jettySize=auto;html=1;exitX=0.5;exitY=1;exitDx=0;exitDy=0;entryX=0.5;entryY=0;entryDx=0;entryDy=0;" parent="O-xxoR6y4JepeyC2fcWW-264" edge="1">
          <mxGeometry relative="1" as="geometry">
            <mxPoint x="130" y="660" as="sourcePoint" />
          </mxGeometry>
        </mxCell>
        <mxCell id="O-xxoR6y4JepeyC2fcWW-206" value="Selamat datang di sistem" style="text;html=1;strokeColor=none;fillColor=none;align=center;verticalAlign=middle;whiteSpace=wrap;rounded=0;" parent="O-xxoR6y4JepeyC2fcWW-264" vertex="1">
          <mxGeometry y="25" width="190" height="30" as="geometry" />
        </mxCell>
        <mxCell id="O-xxoR6y4JepeyC2fcWW-207" value="pilih menu:" style="text;html=1;strokeColor=none;fillColor=none;align=center;verticalAlign=middle;whiteSpace=wrap;rounded=0;" parent="O-xxoR6y4JepeyC2fcWW-264" vertex="1">
          <mxGeometry y="55" width="190" height="30" as="geometry" />
        </mxCell>
        <mxCell id="O-xxoR6y4JepeyC2fcWW-208" value="1. Login" style="text;html=1;strokeColor=none;fillColor=none;align=center;verticalAlign=middle;whiteSpace=wrap;rounded=0;" parent="O-xxoR6y4JepeyC2fcWW-264" vertex="1">
          <mxGeometry y="85" width="190" height="30" as="geometry" />
        </mxCell>
        <mxCell id="O-xxoR6y4JepeyC2fcWW-209" value="2. Register" style="text;html=1;strokeColor=none;fillColor=none;align=center;verticalAlign=middle;whiteSpace=wrap;rounded=0;" parent="O-xxoR6y4JepeyC2fcWW-264" vertex="1">
          <mxGeometry y="115" width="190" height="30" as="geometry" />
        </mxCell>
        <mxCell id="O-xxoR6y4JepeyC2fcWW-210" value="3. About" style="text;html=1;strokeColor=none;fillColor=none;align=center;verticalAlign=middle;whiteSpace=wrap;rounded=0;" parent="O-xxoR6y4JepeyC2fcWW-264" vertex="1">
          <mxGeometry y="145" width="190" height="30" as="geometry" />
        </mxCell>
        <mxCell id="O-xxoR6y4JepeyC2fcWW-269" value="Register" style="swimlane;whiteSpace=wrap;html=1;startSize=23;" parent="xOamFbycdJBBgBO8ghrL-13" vertex="1">
          <mxGeometry x="520" y="80" width="190" height="100" as="geometry" />
        </mxCell>
        <mxCell id="O-xxoR6y4JepeyC2fcWW-270" style="edgeStyle=orthogonalEdgeStyle;rounded=0;orthogonalLoop=1;jettySize=auto;html=1;exitX=0.5;exitY=1;exitDx=0;exitDy=0;entryX=0.5;entryY=0;entryDx=0;entryDy=0;" parent="O-xxoR6y4JepeyC2fcWW-269" edge="1">
          <mxGeometry relative="1" as="geometry">
            <mxPoint x="130" y="110" as="targetPoint" />
          </mxGeometry>
        </mxCell>
        <mxCell id="O-xxoR6y4JepeyC2fcWW-271" style="edgeStyle=orthogonalEdgeStyle;rounded=0;orthogonalLoop=1;jettySize=auto;html=1;exitX=0.5;exitY=1;exitDx=0;exitDy=0;entryX=0.5;entryY=0;entryDx=0;entryDy=0;" parent="O-xxoR6y4JepeyC2fcWW-269" edge="1">
          <mxGeometry relative="1" as="geometry">
            <mxPoint x="130" y="660" as="sourcePoint" />
          </mxGeometry>
        </mxCell>
        <mxCell id="O-xxoR6y4JepeyC2fcWW-274" value="selamat bergabung" style="text;html=1;strokeColor=none;fillColor=none;align=center;verticalAlign=middle;whiteSpace=wrap;rounded=0;" parent="O-xxoR6y4JepeyC2fcWW-269" vertex="1">
          <mxGeometry y="30" width="190" height="30" as="geometry" />
        </mxCell>
        <mxCell id="O-xxoR6y4JepeyC2fcWW-275" value="Pembuka" style="swimlane;whiteSpace=wrap;html=1;startSize=23;" parent="xOamFbycdJBBgBO8ghrL-13" vertex="1">
          <mxGeometry x="40" y="320" width="190" height="175" as="geometry" />
        </mxCell>
        <mxCell id="O-xxoR6y4JepeyC2fcWW-276" style="edgeStyle=orthogonalEdgeStyle;rounded=0;orthogonalLoop=1;jettySize=auto;html=1;exitX=0.5;exitY=1;exitDx=0;exitDy=0;entryX=0.5;entryY=0;entryDx=0;entryDy=0;" parent="O-xxoR6y4JepeyC2fcWW-275" edge="1">
          <mxGeometry relative="1" as="geometry">
            <mxPoint x="130" y="110" as="targetPoint" />
          </mxGeometry>
        </mxCell>
        <mxCell id="O-xxoR6y4JepeyC2fcWW-277" style="edgeStyle=orthogonalEdgeStyle;rounded=0;orthogonalLoop=1;jettySize=auto;html=1;exitX=0.5;exitY=1;exitDx=0;exitDy=0;entryX=0.5;entryY=0;entryDx=0;entryDy=0;" parent="O-xxoR6y4JepeyC2fcWW-275" edge="1">
          <mxGeometry relative="1" as="geometry">
            <mxPoint x="130" y="660" as="sourcePoint" />
          </mxGeometry>
        </mxCell>
        <mxCell id="O-xxoR6y4JepeyC2fcWW-278" value="Selamat datang di sistem" style="text;html=1;strokeColor=none;fillColor=none;align=center;verticalAlign=middle;whiteSpace=wrap;rounded=0;" parent="O-xxoR6y4JepeyC2fcWW-275" vertex="1">
          <mxGeometry y="25" width="190" height="30" as="geometry" />
        </mxCell>
        <mxCell id="O-xxoR6y4JepeyC2fcWW-279" value="pilih menu:" style="text;html=1;strokeColor=none;fillColor=none;align=center;verticalAlign=middle;whiteSpace=wrap;rounded=0;" parent="O-xxoR6y4JepeyC2fcWW-275" vertex="1">
          <mxGeometry y="55" width="190" height="30" as="geometry" />
        </mxCell>
        <mxCell id="O-xxoR6y4JepeyC2fcWW-280" value="1. Login" style="text;html=1;strokeColor=none;fillColor=none;align=center;verticalAlign=middle;whiteSpace=wrap;rounded=0;" parent="O-xxoR6y4JepeyC2fcWW-275" vertex="1">
          <mxGeometry y="85" width="190" height="30" as="geometry" />
        </mxCell>
        <mxCell id="O-xxoR6y4JepeyC2fcWW-281" value="2. Register" style="text;html=1;strokeColor=none;fillColor=none;align=center;verticalAlign=middle;whiteSpace=wrap;rounded=0;" parent="O-xxoR6y4JepeyC2fcWW-275" vertex="1">
          <mxGeometry y="115" width="190" height="30" as="geometry" />
        </mxCell>
        <mxCell id="O-xxoR6y4JepeyC2fcWW-282" value="3. About" style="text;html=1;strokeColor=none;fillColor=none;align=center;verticalAlign=middle;whiteSpace=wrap;rounded=0;" parent="O-xxoR6y4JepeyC2fcWW-275" vertex="1">
          <mxGeometry y="145" width="190" height="30" as="geometry" />
        </mxCell>
        <mxCell id="O-xxoR6y4JepeyC2fcWW-228" value="Menu Utama" style="swimlane;whiteSpace=wrap;html=1;startSize=23;" parent="xOamFbycdJBBgBO8ghrL-13" vertex="1">
          <mxGeometry x="520" y="320" width="190" height="280" as="geometry" />
        </mxCell>
        <mxCell id="O-xxoR6y4JepeyC2fcWW-229" style="edgeStyle=orthogonalEdgeStyle;rounded=0;orthogonalLoop=1;jettySize=auto;html=1;exitX=0.5;exitY=1;exitDx=0;exitDy=0;entryX=0.5;entryY=0;entryDx=0;entryDy=0;" parent="O-xxoR6y4JepeyC2fcWW-228" edge="1">
          <mxGeometry relative="1" as="geometry">
            <mxPoint x="130" y="110" as="targetPoint" />
          </mxGeometry>
        </mxCell>
        <mxCell id="O-xxoR6y4JepeyC2fcWW-230" style="edgeStyle=orthogonalEdgeStyle;rounded=0;orthogonalLoop=1;jettySize=auto;html=1;exitX=0.5;exitY=1;exitDx=0;exitDy=0;entryX=0.5;entryY=0;entryDx=0;entryDy=0;" parent="O-xxoR6y4JepeyC2fcWW-228" edge="1">
          <mxGeometry relative="1" as="geometry">
            <mxPoint x="130" y="660" as="sourcePoint" />
          </mxGeometry>
        </mxCell>
        <mxCell id="O-xxoR6y4JepeyC2fcWW-233" value="Pilih Menu:" style="text;html=1;strokeColor=none;fillColor=none;align=center;verticalAlign=middle;whiteSpace=wrap;rounded=0;" parent="O-xxoR6y4JepeyC2fcWW-228" vertex="1">
          <mxGeometry y="30" width="190" height="30" as="geometry" />
        </mxCell>
        <mxCell id="O-xxoR6y4JepeyC2fcWW-234" value="1. Lihat Saldo" style="text;html=1;strokeColor=none;fillColor=none;align=center;verticalAlign=middle;whiteSpace=wrap;rounded=0;" parent="O-xxoR6y4JepeyC2fcWW-228" vertex="1">
          <mxGeometry y="60" width="190" height="30" as="geometry" />
        </mxCell>
        <mxCell id="O-xxoR6y4JepeyC2fcWW-235" value="2. Top-Up" style="text;html=1;strokeColor=none;fillColor=none;align=center;verticalAlign=middle;whiteSpace=wrap;rounded=0;" parent="O-xxoR6y4JepeyC2fcWW-228" vertex="1">
          <mxGeometry y="90" width="190" height="30" as="geometry" />
        </mxCell>
        <mxCell id="O-xxoR6y4JepeyC2fcWW-236" value="3. Transfer" style="text;html=1;strokeColor=none;fillColor=none;align=center;verticalAlign=middle;whiteSpace=wrap;rounded=0;" parent="O-xxoR6y4JepeyC2fcWW-228" vertex="1">
          <mxGeometry y="120" width="190" height="30" as="geometry" />
        </mxCell>
        <mxCell id="O-xxoR6y4JepeyC2fcWW-237" value="5. Lihat&amp;nbsp; Profil" style="text;html=1;strokeColor=none;fillColor=none;align=center;verticalAlign=middle;whiteSpace=wrap;rounded=0;" parent="O-xxoR6y4JepeyC2fcWW-228" vertex="1">
          <mxGeometry y="180" width="190" height="30" as="geometry" />
        </mxCell>
        <mxCell id="O-xxoR6y4JepeyC2fcWW-238" value="7. Keluar dari sistem" style="text;html=1;strokeColor=none;fillColor=none;align=center;verticalAlign=middle;whiteSpace=wrap;rounded=0;" parent="O-xxoR6y4JepeyC2fcWW-228" vertex="1">
          <mxGeometry y="240" width="190" height="30" as="geometry" />
        </mxCell>
        <mxCell id="O-xxoR6y4JepeyC2fcWW-427" value="4. Lihat&amp;nbsp; Riwayat Transaksi" style="text;html=1;strokeColor=none;fillColor=none;align=center;verticalAlign=middle;whiteSpace=wrap;rounded=0;" parent="O-xxoR6y4JepeyC2fcWW-228" vertex="1">
          <mxGeometry y="150" width="190" height="30" as="geometry" />
        </mxCell>
        <mxCell id="N1U8MxhqDcZMY0fejf1R-14" value="6. Cari User" style="text;html=1;strokeColor=none;fillColor=none;align=center;verticalAlign=middle;whiteSpace=wrap;rounded=0;" vertex="1" parent="O-xxoR6y4JepeyC2fcWW-228">
          <mxGeometry y="210" width="190" height="30" as="geometry" />
        </mxCell>
        <mxCell id="O-xxoR6y4JepeyC2fcWW-239" value="Lihat Saldo" style="swimlane;whiteSpace=wrap;html=1;startSize=23;" parent="xOamFbycdJBBgBO8ghrL-13" vertex="1">
          <mxGeometry x="800" y="320" width="190" height="160" as="geometry" />
        </mxCell>
        <mxCell id="O-xxoR6y4JepeyC2fcWW-240" style="edgeStyle=orthogonalEdgeStyle;rounded=0;orthogonalLoop=1;jettySize=auto;html=1;exitX=0.5;exitY=1;exitDx=0;exitDy=0;entryX=0.5;entryY=0;entryDx=0;entryDy=0;" parent="O-xxoR6y4JepeyC2fcWW-239" edge="1">
          <mxGeometry relative="1" as="geometry">
            <mxPoint x="130" y="110" as="targetPoint" />
          </mxGeometry>
        </mxCell>
        <mxCell id="O-xxoR6y4JepeyC2fcWW-241" style="edgeStyle=orthogonalEdgeStyle;rounded=0;orthogonalLoop=1;jettySize=auto;html=1;exitX=0.5;exitY=1;exitDx=0;exitDy=0;entryX=0.5;entryY=0;entryDx=0;entryDy=0;" parent="O-xxoR6y4JepeyC2fcWW-239" edge="1">
          <mxGeometry relative="1" as="geometry">
            <mxPoint x="130" y="660" as="sourcePoint" />
          </mxGeometry>
        </mxCell>
        <mxCell id="O-xxoR6y4JepeyC2fcWW-242" value="Saldo Anda Saat Ini :" style="text;html=1;strokeColor=none;fillColor=none;align=center;verticalAlign=middle;whiteSpace=wrap;rounded=0;" parent="O-xxoR6y4JepeyC2fcWW-239" vertex="1">
          <mxGeometry y="30" width="190" height="30" as="geometry" />
        </mxCell>
        <mxCell id="O-xxoR6y4JepeyC2fcWW-248" value="Rp. 100000" style="text;html=1;strokeColor=none;fillColor=none;align=center;verticalAlign=middle;whiteSpace=wrap;rounded=0;" parent="O-xxoR6y4JepeyC2fcWW-239" vertex="1">
          <mxGeometry y="60" width="190" height="30" as="geometry" />
        </mxCell>
        <mxCell id="O-xxoR6y4JepeyC2fcWW-249" value="Ingin transaksi lagi?" style="text;html=1;strokeColor=none;fillColor=none;align=center;verticalAlign=middle;whiteSpace=wrap;rounded=0;" parent="O-xxoR6y4JepeyC2fcWW-239" vertex="1">
          <mxGeometry y="90" width="190" height="30" as="geometry" />
        </mxCell>
        <mxCell id="O-xxoR6y4JepeyC2fcWW-351" value="Y/T" style="text;html=1;strokeColor=none;fillColor=none;align=center;verticalAlign=middle;whiteSpace=wrap;rounded=0;" parent="O-xxoR6y4JepeyC2fcWW-239" vertex="1">
          <mxGeometry y="120" width="190" height="30" as="geometry" />
        </mxCell>
        <mxCell id="O-xxoR6y4JepeyC2fcWW-250" value="Top-Up" style="swimlane;whiteSpace=wrap;html=1;startSize=23;" parent="xOamFbycdJBBgBO8ghrL-13" vertex="1">
          <mxGeometry x="800" y="520" width="190" height="100" as="geometry" />
        </mxCell>
        <mxCell id="O-xxoR6y4JepeyC2fcWW-251" style="edgeStyle=orthogonalEdgeStyle;rounded=0;orthogonalLoop=1;jettySize=auto;html=1;exitX=0.5;exitY=1;exitDx=0;exitDy=0;entryX=0.5;entryY=0;entryDx=0;entryDy=0;" parent="O-xxoR6y4JepeyC2fcWW-250" edge="1">
          <mxGeometry relative="1" as="geometry">
            <mxPoint x="130" y="110" as="targetPoint" />
          </mxGeometry>
        </mxCell>
        <mxCell id="O-xxoR6y4JepeyC2fcWW-252" style="edgeStyle=orthogonalEdgeStyle;rounded=0;orthogonalLoop=1;jettySize=auto;html=1;exitX=0.5;exitY=1;exitDx=0;exitDy=0;entryX=0.5;entryY=0;entryDx=0;entryDy=0;" parent="O-xxoR6y4JepeyC2fcWW-250" edge="1">
          <mxGeometry relative="1" as="geometry">
            <mxPoint x="130" y="660" as="sourcePoint" />
          </mxGeometry>
        </mxCell>
        <mxCell id="O-xxoR6y4JepeyC2fcWW-253" value="Masukkan saldo yang ingin di top-up" style="text;html=1;strokeColor=none;fillColor=none;align=center;verticalAlign=middle;whiteSpace=wrap;rounded=0;" parent="O-xxoR6y4JepeyC2fcWW-250" vertex="1">
          <mxGeometry y="30" width="190" height="30" as="geometry" />
        </mxCell>
        <mxCell id="O-xxoR6y4JepeyC2fcWW-254" value="Rp. 100000" style="text;html=1;strokeColor=none;fillColor=none;align=center;verticalAlign=middle;whiteSpace=wrap;rounded=0;" parent="O-xxoR6y4JepeyC2fcWW-250" vertex="1">
          <mxGeometry y="60" width="190" height="30" as="geometry" />
        </mxCell>
        <mxCell id="O-xxoR6y4JepeyC2fcWW-295" value="Top-Up" style="swimlane;whiteSpace=wrap;html=1;startSize=23;" parent="xOamFbycdJBBgBO8ghrL-13" vertex="1">
          <mxGeometry x="1040" y="520" width="190" height="110" as="geometry" />
        </mxCell>
        <mxCell id="O-xxoR6y4JepeyC2fcWW-296" style="edgeStyle=orthogonalEdgeStyle;rounded=0;orthogonalLoop=1;jettySize=auto;html=1;exitX=0.5;exitY=1;exitDx=0;exitDy=0;entryX=0.5;entryY=0;entryDx=0;entryDy=0;" parent="O-xxoR6y4JepeyC2fcWW-295" edge="1">
          <mxGeometry relative="1" as="geometry">
            <mxPoint x="130" y="110" as="targetPoint" />
          </mxGeometry>
        </mxCell>
        <mxCell id="O-xxoR6y4JepeyC2fcWW-297" style="edgeStyle=orthogonalEdgeStyle;rounded=0;orthogonalLoop=1;jettySize=auto;html=1;exitX=0.5;exitY=1;exitDx=0;exitDy=0;entryX=0.5;entryY=0;entryDx=0;entryDy=0;" parent="O-xxoR6y4JepeyC2fcWW-295" edge="1">
          <mxGeometry relative="1" as="geometry">
            <mxPoint x="130" y="660" as="sourcePoint" />
          </mxGeometry>
        </mxCell>
        <mxCell id="O-xxoR6y4JepeyC2fcWW-292" value="pilih metode pembayaran:" style="text;html=1;strokeColor=none;fillColor=none;align=center;verticalAlign=middle;whiteSpace=wrap;rounded=0;" parent="O-xxoR6y4JepeyC2fcWW-295" vertex="1">
          <mxGeometry y="20" width="190" height="30" as="geometry" />
        </mxCell>
        <mxCell id="O-xxoR6y4JepeyC2fcWW-293" value="1. Indomaret" style="text;html=1;strokeColor=none;fillColor=none;align=center;verticalAlign=middle;whiteSpace=wrap;rounded=0;" parent="O-xxoR6y4JepeyC2fcWW-295" vertex="1">
          <mxGeometry y="50" width="190" height="30" as="geometry" />
        </mxCell>
        <mxCell id="O-xxoR6y4JepeyC2fcWW-294" value="2. BRI" style="text;html=1;strokeColor=none;fillColor=none;align=center;verticalAlign=middle;whiteSpace=wrap;rounded=0;" parent="O-xxoR6y4JepeyC2fcWW-295" vertex="1">
          <mxGeometry y="80" width="190" height="30" as="geometry" />
        </mxCell>
        <mxCell id="O-xxoR6y4JepeyC2fcWW-300" value="Top-Up" style="swimlane;whiteSpace=wrap;html=1;startSize=23;" parent="xOamFbycdJBBgBO8ghrL-13" vertex="1">
          <mxGeometry x="1280" y="520" width="190" height="130" as="geometry" />
        </mxCell>
        <mxCell id="O-xxoR6y4JepeyC2fcWW-301" style="edgeStyle=orthogonalEdgeStyle;rounded=0;orthogonalLoop=1;jettySize=auto;html=1;exitX=0.5;exitY=1;exitDx=0;exitDy=0;entryX=0.5;entryY=0;entryDx=0;entryDy=0;" parent="O-xxoR6y4JepeyC2fcWW-300" edge="1">
          <mxGeometry relative="1" as="geometry">
            <mxPoint x="130" y="110" as="targetPoint" />
          </mxGeometry>
        </mxCell>
        <mxCell id="O-xxoR6y4JepeyC2fcWW-302" style="edgeStyle=orthogonalEdgeStyle;rounded=0;orthogonalLoop=1;jettySize=auto;html=1;exitX=0.5;exitY=1;exitDx=0;exitDy=0;entryX=0.5;entryY=0;entryDx=0;entryDy=0;" parent="O-xxoR6y4JepeyC2fcWW-300" edge="1">
          <mxGeometry relative="1" as="geometry">
            <mxPoint x="130" y="660" as="sourcePoint" />
          </mxGeometry>
        </mxCell>
        <mxCell id="O-xxoR6y4JepeyC2fcWW-303" value="Apakah nada ingin topup &amp;lt;nominal&amp;gt; dengan metode &amp;lt;metode&amp;gt;" style="text;html=1;strokeColor=none;fillColor=none;align=center;verticalAlign=middle;whiteSpace=wrap;rounded=0;" parent="O-xxoR6y4JepeyC2fcWW-300" vertex="1">
          <mxGeometry y="50" width="190" height="30" as="geometry" />
        </mxCell>
        <mxCell id="O-xxoR6y4JepeyC2fcWW-304" value="Y/N" style="text;html=1;strokeColor=none;fillColor=none;align=center;verticalAlign=middle;whiteSpace=wrap;rounded=0;" parent="O-xxoR6y4JepeyC2fcWW-300" vertex="1">
          <mxGeometry y="90" width="190" height="30" as="geometry" />
        </mxCell>
        <mxCell id="O-xxoR6y4JepeyC2fcWW-306" value="Top-Up" style="swimlane;whiteSpace=wrap;html=1;startSize=23;" parent="xOamFbycdJBBgBO8ghrL-13" vertex="1">
          <mxGeometry x="1510" y="520" width="190" height="125" as="geometry" />
        </mxCell>
        <mxCell id="O-xxoR6y4JepeyC2fcWW-307" style="edgeStyle=orthogonalEdgeStyle;rounded=0;orthogonalLoop=1;jettySize=auto;html=1;exitX=0.5;exitY=1;exitDx=0;exitDy=0;entryX=0.5;entryY=0;entryDx=0;entryDy=0;" parent="O-xxoR6y4JepeyC2fcWW-306" edge="1">
          <mxGeometry relative="1" as="geometry">
            <mxPoint x="130" y="110" as="targetPoint" />
          </mxGeometry>
        </mxCell>
        <mxCell id="O-xxoR6y4JepeyC2fcWW-308" style="edgeStyle=orthogonalEdgeStyle;rounded=0;orthogonalLoop=1;jettySize=auto;html=1;exitX=0.5;exitY=1;exitDx=0;exitDy=0;entryX=0.5;entryY=0;entryDx=0;entryDy=0;" parent="O-xxoR6y4JepeyC2fcWW-306" edge="1">
          <mxGeometry relative="1" as="geometry">
            <mxPoint x="130" y="660" as="sourcePoint" />
          </mxGeometry>
        </mxCell>
        <mxCell id="O-xxoR6y4JepeyC2fcWW-309" value="Top up anda Berhasil" style="text;html=1;strokeColor=none;fillColor=none;align=center;verticalAlign=middle;whiteSpace=wrap;rounded=0;" parent="O-xxoR6y4JepeyC2fcWW-306" vertex="1">
          <mxGeometry y="35" width="190" height="30" as="geometry" />
        </mxCell>
        <mxCell id="O-xxoR6y4JepeyC2fcWW-352" value="Ingin transaksi lagi?" style="text;html=1;strokeColor=none;fillColor=none;align=center;verticalAlign=middle;whiteSpace=wrap;rounded=0;" parent="O-xxoR6y4JepeyC2fcWW-306" vertex="1">
          <mxGeometry y="65" width="190" height="30" as="geometry" />
        </mxCell>
        <mxCell id="O-xxoR6y4JepeyC2fcWW-353" value="Y/T" style="text;html=1;strokeColor=none;fillColor=none;align=center;verticalAlign=middle;whiteSpace=wrap;rounded=0;" parent="O-xxoR6y4JepeyC2fcWW-306" vertex="1">
          <mxGeometry y="95" width="190" height="30" as="geometry" />
        </mxCell>
        <mxCell id="O-xxoR6y4JepeyC2fcWW-313" value="Transfer" style="swimlane;whiteSpace=wrap;html=1;startSize=23;" parent="xOamFbycdJBBgBO8ghrL-13" vertex="1">
          <mxGeometry x="800" y="675" width="190" height="135" as="geometry" />
        </mxCell>
        <mxCell id="O-xxoR6y4JepeyC2fcWW-314" style="edgeStyle=orthogonalEdgeStyle;rounded=0;orthogonalLoop=1;jettySize=auto;html=1;exitX=0.5;exitY=1;exitDx=0;exitDy=0;entryX=0.5;entryY=0;entryDx=0;entryDy=0;" parent="O-xxoR6y4JepeyC2fcWW-313" edge="1">
          <mxGeometry relative="1" as="geometry">
            <mxPoint x="130" y="110" as="targetPoint" />
          </mxGeometry>
        </mxCell>
        <mxCell id="O-xxoR6y4JepeyC2fcWW-315" style="edgeStyle=orthogonalEdgeStyle;rounded=0;orthogonalLoop=1;jettySize=auto;html=1;exitX=0.5;exitY=1;exitDx=0;exitDy=0;entryX=0.5;entryY=0;entryDx=0;entryDy=0;" parent="O-xxoR6y4JepeyC2fcWW-313" edge="1">
          <mxGeometry relative="1" as="geometry">
            <mxPoint x="130" y="660" as="sourcePoint" />
          </mxGeometry>
        </mxCell>
        <mxCell id="O-xxoR6y4JepeyC2fcWW-316" value="1. Pilih nomer tujuan" style="text;html=1;strokeColor=none;fillColor=none;align=center;verticalAlign=middle;whiteSpace=wrap;rounded=0;" parent="O-xxoR6y4JepeyC2fcWW-313" vertex="1">
          <mxGeometry y="30" width="190" height="30" as="geometry" />
        </mxCell>
        <mxCell id="O-xxoR6y4JepeyC2fcWW-318" value="2. Masukkan nomor tujuan" style="text;html=1;strokeColor=none;fillColor=none;align=center;verticalAlign=middle;whiteSpace=wrap;rounded=0;" parent="O-xxoR6y4JepeyC2fcWW-313" vertex="1">
          <mxGeometry y="60" width="190" height="30" as="geometry" />
        </mxCell>
        <mxCell id="O-xxoR6y4JepeyC2fcWW-350" value="3. kembali" style="text;html=1;strokeColor=none;fillColor=none;align=center;verticalAlign=middle;whiteSpace=wrap;rounded=0;" parent="O-xxoR6y4JepeyC2fcWW-313" vertex="1">
          <mxGeometry y="90" width="190" height="30" as="geometry" />
        </mxCell>
        <mxCell id="O-xxoR6y4JepeyC2fcWW-319" value="Transfer" style="swimlane;whiteSpace=wrap;html=1;startSize=23;" parent="xOamFbycdJBBgBO8ghrL-13" vertex="1">
          <mxGeometry x="1040" y="675" width="190" height="225" as="geometry" />
        </mxCell>
        <mxCell id="O-xxoR6y4JepeyC2fcWW-320" style="edgeStyle=orthogonalEdgeStyle;rounded=0;orthogonalLoop=1;jettySize=auto;html=1;exitX=0.5;exitY=1;exitDx=0;exitDy=0;entryX=0.5;entryY=0;entryDx=0;entryDy=0;" parent="O-xxoR6y4JepeyC2fcWW-319" edge="1">
          <mxGeometry relative="1" as="geometry">
            <mxPoint x="130" y="110" as="targetPoint" />
          </mxGeometry>
        </mxCell>
        <mxCell id="O-xxoR6y4JepeyC2fcWW-321" style="edgeStyle=orthogonalEdgeStyle;rounded=0;orthogonalLoop=1;jettySize=auto;html=1;exitX=0.5;exitY=1;exitDx=0;exitDy=0;entryX=0.5;entryY=0;entryDx=0;entryDy=0;" parent="O-xxoR6y4JepeyC2fcWW-319" edge="1">
          <mxGeometry relative="1" as="geometry">
            <mxPoint x="130" y="660" as="sourcePoint" />
          </mxGeometry>
        </mxCell>
        <mxCell id="O-xxoR6y4JepeyC2fcWW-322" value="1. user1 - 098776" style="text;html=1;strokeColor=none;fillColor=none;align=center;verticalAlign=middle;whiteSpace=wrap;rounded=0;" parent="O-xxoR6y4JepeyC2fcWW-319" vertex="1">
          <mxGeometry y="55" width="190" height="30" as="geometry" />
        </mxCell>
        <mxCell id="O-xxoR6y4JepeyC2fcWW-324" value="2. user2 - 098776" style="text;html=1;strokeColor=none;fillColor=none;align=center;verticalAlign=middle;whiteSpace=wrap;rounded=0;" parent="O-xxoR6y4JepeyC2fcWW-319" vertex="1">
          <mxGeometry y="85" width="190" height="30" as="geometry" />
        </mxCell>
        <mxCell id="O-xxoR6y4JepeyC2fcWW-325" value="3. user3 - 098776" style="text;html=1;strokeColor=none;fillColor=none;align=center;verticalAlign=middle;whiteSpace=wrap;rounded=0;" parent="O-xxoR6y4JepeyC2fcWW-319" vertex="1">
          <mxGeometry y="115" width="190" height="30" as="geometry" />
        </mxCell>
        <mxCell id="O-xxoR6y4JepeyC2fcWW-409" value="10. userN - 098776" style="text;html=1;strokeColor=none;fillColor=none;align=center;verticalAlign=middle;whiteSpace=wrap;rounded=0;" parent="O-xxoR6y4JepeyC2fcWW-319" vertex="1">
          <mxGeometry y="175" width="190" height="30" as="geometry" />
        </mxCell>
        <mxCell id="O-xxoR6y4JepeyC2fcWW-410" value="..." style="text;html=1;strokeColor=none;fillColor=none;align=center;verticalAlign=middle;whiteSpace=wrap;rounded=0;" parent="O-xxoR6y4JepeyC2fcWW-319" vertex="1">
          <mxGeometry y="145" width="190" height="30" as="geometry" />
        </mxCell>
        <mxCell id="O-xxoR6y4JepeyC2fcWW-408" value="0 Kembali" style="text;html=1;strokeColor=none;fillColor=none;align=center;verticalAlign=middle;whiteSpace=wrap;rounded=0;" parent="O-xxoR6y4JepeyC2fcWW-319" vertex="1">
          <mxGeometry y="25" width="190" height="30" as="geometry" />
        </mxCell>
        <mxCell id="O-xxoR6y4JepeyC2fcWW-326" value="Transfer" style="swimlane;whiteSpace=wrap;html=1;startSize=23;" parent="xOamFbycdJBBgBO8ghrL-13" vertex="1">
          <mxGeometry x="1280" y="675" width="190" height="175" as="geometry" />
        </mxCell>
        <mxCell id="O-xxoR6y4JepeyC2fcWW-327" style="edgeStyle=orthogonalEdgeStyle;rounded=0;orthogonalLoop=1;jettySize=auto;html=1;exitX=0.5;exitY=1;exitDx=0;exitDy=0;entryX=0.5;entryY=0;entryDx=0;entryDy=0;" parent="O-xxoR6y4JepeyC2fcWW-326" edge="1">
          <mxGeometry relative="1" as="geometry">
            <mxPoint x="130" y="110" as="targetPoint" />
          </mxGeometry>
        </mxCell>
        <mxCell id="O-xxoR6y4JepeyC2fcWW-328" style="edgeStyle=orthogonalEdgeStyle;rounded=0;orthogonalLoop=1;jettySize=auto;html=1;exitX=0.5;exitY=1;exitDx=0;exitDy=0;entryX=0.5;entryY=0;entryDx=0;entryDy=0;" parent="O-xxoR6y4JepeyC2fcWW-326" edge="1">
          <mxGeometry relative="1" as="geometry">
            <mxPoint x="130" y="660" as="sourcePoint" />
          </mxGeometry>
        </mxCell>
        <mxCell id="O-xxoR6y4JepeyC2fcWW-332" value="nama : mamad" style="text;html=1;strokeColor=none;fillColor=none;align=center;verticalAlign=middle;whiteSpace=wrap;rounded=0;" parent="O-xxoR6y4JepeyC2fcWW-326" vertex="1">
          <mxGeometry y="35" width="190" height="30" as="geometry" />
        </mxCell>
        <mxCell id="O-xxoR6y4JepeyC2fcWW-333" value="nomor telp : 098776" style="text;html=1;strokeColor=none;fillColor=none;align=center;verticalAlign=middle;whiteSpace=wrap;rounded=0;" parent="O-xxoR6y4JepeyC2fcWW-326" vertex="1">
          <mxGeometry y="65" width="190" height="30" as="geometry" />
        </mxCell>
        <mxCell id="O-xxoR6y4JepeyC2fcWW-334" value="Masukkan Nominal" style="text;html=1;strokeColor=none;fillColor=none;align=center;verticalAlign=middle;whiteSpace=wrap;rounded=0;" parent="O-xxoR6y4JepeyC2fcWW-326" vertex="1">
          <mxGeometry y="95" width="190" height="30" as="geometry" />
        </mxCell>
        <mxCell id="O-xxoR6y4JepeyC2fcWW-335" value="Rp. 10000" style="text;html=1;strokeColor=none;fillColor=none;align=center;verticalAlign=middle;whiteSpace=wrap;rounded=0;" parent="O-xxoR6y4JepeyC2fcWW-326" vertex="1">
          <mxGeometry y="125" width="190" height="30" as="geometry" />
        </mxCell>
        <mxCell id="O-xxoR6y4JepeyC2fcWW-336" value="Transfer" style="swimlane;whiteSpace=wrap;html=1;startSize=23;" parent="xOamFbycdJBBgBO8ghrL-13" vertex="1">
          <mxGeometry x="1520" y="675" width="190" height="115" as="geometry" />
        </mxCell>
        <mxCell id="O-xxoR6y4JepeyC2fcWW-337" style="edgeStyle=orthogonalEdgeStyle;rounded=0;orthogonalLoop=1;jettySize=auto;html=1;exitX=0.5;exitY=1;exitDx=0;exitDy=0;entryX=0.5;entryY=0;entryDx=0;entryDy=0;" parent="O-xxoR6y4JepeyC2fcWW-336" edge="1">
          <mxGeometry relative="1" as="geometry">
            <mxPoint x="130" y="110" as="targetPoint" />
          </mxGeometry>
        </mxCell>
        <mxCell id="O-xxoR6y4JepeyC2fcWW-338" style="edgeStyle=orthogonalEdgeStyle;rounded=0;orthogonalLoop=1;jettySize=auto;html=1;exitX=0.5;exitY=1;exitDx=0;exitDy=0;entryX=0.5;entryY=0;entryDx=0;entryDy=0;" parent="O-xxoR6y4JepeyC2fcWW-336" edge="1">
          <mxGeometry relative="1" as="geometry">
            <mxPoint x="130" y="660" as="sourcePoint" />
          </mxGeometry>
        </mxCell>
        <mxCell id="O-xxoR6y4JepeyC2fcWW-343" value="Apakah anda yakin untuk melakukan tranfer?" style="text;html=1;strokeColor=none;fillColor=none;align=center;verticalAlign=middle;whiteSpace=wrap;rounded=0;" parent="O-xxoR6y4JepeyC2fcWW-336" vertex="1">
          <mxGeometry y="35" width="190" height="30" as="geometry" />
        </mxCell>
        <mxCell id="O-xxoR6y4JepeyC2fcWW-344" value="Y/N" style="text;html=1;strokeColor=none;fillColor=none;align=center;verticalAlign=middle;whiteSpace=wrap;rounded=0;" parent="O-xxoR6y4JepeyC2fcWW-336" vertex="1">
          <mxGeometry y="72.5" width="190" height="30" as="geometry" />
        </mxCell>
        <mxCell id="O-xxoR6y4JepeyC2fcWW-345" value="Transfer" style="swimlane;whiteSpace=wrap;html=1;startSize=23;" parent="xOamFbycdJBBgBO8ghrL-13" vertex="1">
          <mxGeometry x="1750" y="675" width="190" height="135" as="geometry" />
        </mxCell>
        <mxCell id="O-xxoR6y4JepeyC2fcWW-346" style="edgeStyle=orthogonalEdgeStyle;rounded=0;orthogonalLoop=1;jettySize=auto;html=1;exitX=0.5;exitY=1;exitDx=0;exitDy=0;entryX=0.5;entryY=0;entryDx=0;entryDy=0;" parent="O-xxoR6y4JepeyC2fcWW-345" edge="1">
          <mxGeometry relative="1" as="geometry">
            <mxPoint x="130" y="110" as="targetPoint" />
          </mxGeometry>
        </mxCell>
        <mxCell id="O-xxoR6y4JepeyC2fcWW-347" style="edgeStyle=orthogonalEdgeStyle;rounded=0;orthogonalLoop=1;jettySize=auto;html=1;exitX=0.5;exitY=1;exitDx=0;exitDy=0;entryX=0.5;entryY=0;entryDx=0;entryDy=0;" parent="O-xxoR6y4JepeyC2fcWW-345" edge="1">
          <mxGeometry relative="1" as="geometry">
            <mxPoint x="130" y="660" as="sourcePoint" />
          </mxGeometry>
        </mxCell>
        <mxCell id="O-xxoR6y4JepeyC2fcWW-348" value="Transfer anda berhasil" style="text;html=1;strokeColor=none;fillColor=none;align=center;verticalAlign=middle;whiteSpace=wrap;rounded=0;" parent="O-xxoR6y4JepeyC2fcWW-345" vertex="1">
          <mxGeometry y="35" width="190" height="30" as="geometry" />
        </mxCell>
        <mxCell id="O-xxoR6y4JepeyC2fcWW-354" value="Ingin transaksi lagi?" style="text;html=1;strokeColor=none;fillColor=none;align=center;verticalAlign=middle;whiteSpace=wrap;rounded=0;" parent="O-xxoR6y4JepeyC2fcWW-345" vertex="1">
          <mxGeometry y="65" width="190" height="30" as="geometry" />
        </mxCell>
        <mxCell id="O-xxoR6y4JepeyC2fcWW-355" value="Y/T" style="text;html=1;strokeColor=none;fillColor=none;align=center;verticalAlign=middle;whiteSpace=wrap;rounded=0;" parent="O-xxoR6y4JepeyC2fcWW-345" vertex="1">
          <mxGeometry y="95" width="190" height="30" as="geometry" />
        </mxCell>
        <mxCell id="O-xxoR6y4JepeyC2fcWW-356" value="Lihat Profil" style="swimlane;whiteSpace=wrap;html=1;startSize=23;" parent="xOamFbycdJBBgBO8ghrL-13" vertex="1">
          <mxGeometry x="800" y="960" width="190" height="210" as="geometry" />
        </mxCell>
        <mxCell id="O-xxoR6y4JepeyC2fcWW-357" style="edgeStyle=orthogonalEdgeStyle;rounded=0;orthogonalLoop=1;jettySize=auto;html=1;exitX=0.5;exitY=1;exitDx=0;exitDy=0;entryX=0.5;entryY=0;entryDx=0;entryDy=0;" parent="O-xxoR6y4JepeyC2fcWW-356" edge="1">
          <mxGeometry relative="1" as="geometry">
            <mxPoint x="130" y="110" as="targetPoint" />
          </mxGeometry>
        </mxCell>
        <mxCell id="O-xxoR6y4JepeyC2fcWW-358" style="edgeStyle=orthogonalEdgeStyle;rounded=0;orthogonalLoop=1;jettySize=auto;html=1;exitX=0.5;exitY=1;exitDx=0;exitDy=0;entryX=0.5;entryY=0;entryDx=0;entryDy=0;" parent="O-xxoR6y4JepeyC2fcWW-356" edge="1">
          <mxGeometry relative="1" as="geometry">
            <mxPoint x="130" y="660" as="sourcePoint" />
          </mxGeometry>
        </mxCell>
        <mxCell id="O-xxoR6y4JepeyC2fcWW-359" value="Nama :" style="text;html=1;strokeColor=none;fillColor=none;align=center;verticalAlign=middle;whiteSpace=wrap;rounded=0;" parent="O-xxoR6y4JepeyC2fcWW-356" vertex="1">
          <mxGeometry y="30" width="190" height="30" as="geometry" />
        </mxCell>
        <mxCell id="O-xxoR6y4JepeyC2fcWW-362" value="Email" style="text;html=1;strokeColor=none;fillColor=none;align=center;verticalAlign=middle;whiteSpace=wrap;rounded=0;" parent="O-xxoR6y4JepeyC2fcWW-356" vertex="1">
          <mxGeometry y="60" width="190" height="30" as="geometry" />
        </mxCell>
        <mxCell id="O-xxoR6y4JepeyC2fcWW-363" value="Nomer telepon:" style="text;html=1;strokeColor=none;fillColor=none;align=center;verticalAlign=middle;whiteSpace=wrap;rounded=0;" parent="O-xxoR6y4JepeyC2fcWW-356" vertex="1">
          <mxGeometry y="90" width="190" height="30" as="geometry" />
        </mxCell>
        <mxCell id="O-xxoR6y4JepeyC2fcWW-365" value="1. Ubah Profil" style="text;html=1;strokeColor=none;fillColor=none;align=center;verticalAlign=middle;whiteSpace=wrap;rounded=0;" parent="O-xxoR6y4JepeyC2fcWW-356" vertex="1">
          <mxGeometry y="120" width="190" height="30" as="geometry" />
        </mxCell>
        <mxCell id="O-xxoR6y4JepeyC2fcWW-401" value="2. Kembali" style="text;html=1;strokeColor=none;fillColor=none;align=center;verticalAlign=middle;whiteSpace=wrap;rounded=0;" parent="O-xxoR6y4JepeyC2fcWW-356" vertex="1">
          <mxGeometry y="150" width="190" height="30" as="geometry" />
        </mxCell>
        <mxCell id="O-xxoR6y4JepeyC2fcWW-366" value="Lihat Profil" style="swimlane;whiteSpace=wrap;html=1;startSize=23;" parent="xOamFbycdJBBgBO8ghrL-13" vertex="1">
          <mxGeometry x="1040" y="960" width="190" height="250" as="geometry" />
        </mxCell>
        <mxCell id="O-xxoR6y4JepeyC2fcWW-367" style="edgeStyle=orthogonalEdgeStyle;rounded=0;orthogonalLoop=1;jettySize=auto;html=1;exitX=0.5;exitY=1;exitDx=0;exitDy=0;entryX=0.5;entryY=0;entryDx=0;entryDy=0;" parent="O-xxoR6y4JepeyC2fcWW-366" edge="1">
          <mxGeometry relative="1" as="geometry">
            <mxPoint x="130" y="110" as="targetPoint" />
          </mxGeometry>
        </mxCell>
        <mxCell id="O-xxoR6y4JepeyC2fcWW-368" style="edgeStyle=orthogonalEdgeStyle;rounded=0;orthogonalLoop=1;jettySize=auto;html=1;exitX=0.5;exitY=1;exitDx=0;exitDy=0;entryX=0.5;entryY=0;entryDx=0;entryDy=0;" parent="O-xxoR6y4JepeyC2fcWW-366" edge="1">
          <mxGeometry relative="1" as="geometry">
            <mxPoint x="130" y="660" as="sourcePoint" />
          </mxGeometry>
        </mxCell>
        <mxCell id="O-xxoR6y4JepeyC2fcWW-369" value="Pilih data yang diubah" style="text;html=1;strokeColor=none;fillColor=none;align=center;verticalAlign=middle;whiteSpace=wrap;rounded=0;" parent="O-xxoR6y4JepeyC2fcWW-366" vertex="1">
          <mxGeometry y="30" width="190" height="30" as="geometry" />
        </mxCell>
        <mxCell id="O-xxoR6y4JepeyC2fcWW-370" value="1. Nama" style="text;html=1;strokeColor=none;fillColor=none;align=center;verticalAlign=middle;whiteSpace=wrap;rounded=0;" parent="O-xxoR6y4JepeyC2fcWW-366" vertex="1">
          <mxGeometry y="60" width="190" height="30" as="geometry" />
        </mxCell>
        <mxCell id="O-xxoR6y4JepeyC2fcWW-371" value="2. Email" style="text;html=1;strokeColor=none;fillColor=none;align=center;verticalAlign=middle;whiteSpace=wrap;rounded=0;" parent="O-xxoR6y4JepeyC2fcWW-366" vertex="1">
          <mxGeometry y="90" width="190" height="30" as="geometry" />
        </mxCell>
        <mxCell id="O-xxoR6y4JepeyC2fcWW-372" value="3. Nomor_telepon" style="text;html=1;strokeColor=none;fillColor=none;align=center;verticalAlign=middle;whiteSpace=wrap;rounded=0;" parent="O-xxoR6y4JepeyC2fcWW-366" vertex="1">
          <mxGeometry y="120" width="190" height="30" as="geometry" />
        </mxCell>
        <mxCell id="O-xxoR6y4JepeyC2fcWW-380" value="4. Password" style="text;html=1;strokeColor=none;fillColor=none;align=center;verticalAlign=middle;whiteSpace=wrap;rounded=0;" parent="O-xxoR6y4JepeyC2fcWW-366" vertex="1">
          <mxGeometry y="150" width="190" height="30" as="geometry" />
        </mxCell>
        <mxCell id="O-xxoR6y4JepeyC2fcWW-381" value="5. Hapus akun" style="text;html=1;strokeColor=none;fillColor=none;align=center;verticalAlign=middle;whiteSpace=wrap;rounded=0;" parent="O-xxoR6y4JepeyC2fcWW-366" vertex="1">
          <mxGeometry y="180" width="190" height="30" as="geometry" />
        </mxCell>
        <mxCell id="O-xxoR6y4JepeyC2fcWW-402" value="6. Kembali" style="text;html=1;strokeColor=none;fillColor=none;align=center;verticalAlign=middle;whiteSpace=wrap;rounded=0;" parent="O-xxoR6y4JepeyC2fcWW-366" vertex="1">
          <mxGeometry y="210" width="190" height="30" as="geometry" />
        </mxCell>
        <mxCell id="O-xxoR6y4JepeyC2fcWW-382" value="Lihat Profil" style="swimlane;whiteSpace=wrap;html=1;startSize=23;" parent="xOamFbycdJBBgBO8ghrL-13" vertex="1">
          <mxGeometry x="1280" y="960" width="190" height="220" as="geometry" />
        </mxCell>
        <mxCell id="O-xxoR6y4JepeyC2fcWW-383" style="edgeStyle=orthogonalEdgeStyle;rounded=0;orthogonalLoop=1;jettySize=auto;html=1;exitX=0.5;exitY=1;exitDx=0;exitDy=0;entryX=0.5;entryY=0;entryDx=0;entryDy=0;" parent="O-xxoR6y4JepeyC2fcWW-382" edge="1">
          <mxGeometry relative="1" as="geometry">
            <mxPoint x="130" y="110" as="targetPoint" />
          </mxGeometry>
        </mxCell>
        <mxCell id="O-xxoR6y4JepeyC2fcWW-384" style="edgeStyle=orthogonalEdgeStyle;rounded=0;orthogonalLoop=1;jettySize=auto;html=1;exitX=0.5;exitY=1;exitDx=0;exitDy=0;entryX=0.5;entryY=0;entryDx=0;entryDy=0;" parent="O-xxoR6y4JepeyC2fcWW-382" edge="1">
          <mxGeometry relative="1" as="geometry">
            <mxPoint x="130" y="660" as="sourcePoint" />
          </mxGeometry>
        </mxCell>
        <mxCell id="O-xxoR6y4JepeyC2fcWW-385" value="Nama Sebelum :" style="text;html=1;strokeColor=none;fillColor=none;align=center;verticalAlign=middle;whiteSpace=wrap;rounded=0;" parent="O-xxoR6y4JepeyC2fcWW-382" vertex="1">
          <mxGeometry y="30" width="190" height="30" as="geometry" />
        </mxCell>
        <mxCell id="O-xxoR6y4JepeyC2fcWW-386" value="&amp;lt;nama&amp;gt;" style="text;html=1;strokeColor=none;fillColor=none;align=center;verticalAlign=middle;whiteSpace=wrap;rounded=0;" parent="O-xxoR6y4JepeyC2fcWW-382" vertex="1">
          <mxGeometry y="60" width="190" height="30" as="geometry" />
        </mxCell>
        <mxCell id="O-xxoR6y4JepeyC2fcWW-387" value="Masukkan Nama Baru:" style="text;html=1;strokeColor=none;fillColor=none;align=center;verticalAlign=middle;whiteSpace=wrap;rounded=0;" parent="O-xxoR6y4JepeyC2fcWW-382" vertex="1">
          <mxGeometry y="90" width="190" height="30" as="geometry" />
        </mxCell>
        <mxCell id="O-xxoR6y4JepeyC2fcWW-388" value="&amp;lt;input&amp;gt;" style="text;html=1;strokeColor=none;fillColor=none;align=center;verticalAlign=middle;whiteSpace=wrap;rounded=0;" parent="O-xxoR6y4JepeyC2fcWW-382" vertex="1">
          <mxGeometry y="120" width="190" height="30" as="geometry" />
        </mxCell>
        <mxCell id="O-xxoR6y4JepeyC2fcWW-389" value="1. Simpan" style="text;html=1;strokeColor=none;fillColor=none;align=center;verticalAlign=middle;whiteSpace=wrap;rounded=0;" parent="O-xxoR6y4JepeyC2fcWW-382" vertex="1">
          <mxGeometry y="150" width="190" height="30" as="geometry" />
        </mxCell>
        <mxCell id="O-xxoR6y4JepeyC2fcWW-390" value="2. Batal" style="text;html=1;strokeColor=none;fillColor=none;align=center;verticalAlign=middle;whiteSpace=wrap;rounded=0;" parent="O-xxoR6y4JepeyC2fcWW-382" vertex="1">
          <mxGeometry y="180" width="190" height="30" as="geometry" />
        </mxCell>
        <mxCell id="O-xxoR6y4JepeyC2fcWW-391" value="Lihat Profil" style="swimlane;whiteSpace=wrap;html=1;startSize=23;" parent="xOamFbycdJBBgBO8ghrL-13" vertex="1">
          <mxGeometry x="1760" y="960" width="190" height="100" as="geometry" />
        </mxCell>
        <mxCell id="O-xxoR6y4JepeyC2fcWW-392" style="edgeStyle=orthogonalEdgeStyle;rounded=0;orthogonalLoop=1;jettySize=auto;html=1;exitX=0.5;exitY=1;exitDx=0;exitDy=0;entryX=0.5;entryY=0;entryDx=0;entryDy=0;" parent="O-xxoR6y4JepeyC2fcWW-391" edge="1">
          <mxGeometry relative="1" as="geometry">
            <mxPoint x="130" y="110" as="targetPoint" />
          </mxGeometry>
        </mxCell>
        <mxCell id="O-xxoR6y4JepeyC2fcWW-393" style="edgeStyle=orthogonalEdgeStyle;rounded=0;orthogonalLoop=1;jettySize=auto;html=1;exitX=0.5;exitY=1;exitDx=0;exitDy=0;entryX=0.5;entryY=0;entryDx=0;entryDy=0;" parent="O-xxoR6y4JepeyC2fcWW-391" edge="1">
          <mxGeometry relative="1" as="geometry">
            <mxPoint x="130" y="660" as="sourcePoint" />
          </mxGeometry>
        </mxCell>
        <mxCell id="O-xxoR6y4JepeyC2fcWW-399" value="Nama berhasil diubah" style="text;html=1;strokeColor=none;fillColor=none;align=center;verticalAlign=middle;whiteSpace=wrap;rounded=0;" parent="O-xxoR6y4JepeyC2fcWW-391" vertex="1">
          <mxGeometry y="30" width="190" height="30" as="geometry" />
        </mxCell>
        <mxCell id="O-xxoR6y4JepeyC2fcWW-400" value="1. Kembali &amp;lt;ke profil&amp;gt;" style="text;html=1;strokeColor=none;fillColor=none;align=center;verticalAlign=middle;whiteSpace=wrap;rounded=0;" parent="O-xxoR6y4JepeyC2fcWW-391" vertex="1">
          <mxGeometry y="60" width="190" height="30" as="geometry" />
        </mxCell>
        <mxCell id="O-xxoR6y4JepeyC2fcWW-403" value="Lihat Profil" style="swimlane;whiteSpace=wrap;html=1;startSize=23;" parent="xOamFbycdJBBgBO8ghrL-13" vertex="1">
          <mxGeometry x="1520" y="960" width="190" height="100" as="geometry" />
        </mxCell>
        <mxCell id="O-xxoR6y4JepeyC2fcWW-404" style="edgeStyle=orthogonalEdgeStyle;rounded=0;orthogonalLoop=1;jettySize=auto;html=1;exitX=0.5;exitY=1;exitDx=0;exitDy=0;entryX=0.5;entryY=0;entryDx=0;entryDy=0;" parent="O-xxoR6y4JepeyC2fcWW-403" edge="1">
          <mxGeometry relative="1" as="geometry">
            <mxPoint x="130" y="110" as="targetPoint" />
          </mxGeometry>
        </mxCell>
        <mxCell id="O-xxoR6y4JepeyC2fcWW-405" style="edgeStyle=orthogonalEdgeStyle;rounded=0;orthogonalLoop=1;jettySize=auto;html=1;exitX=0.5;exitY=1;exitDx=0;exitDy=0;entryX=0.5;entryY=0;entryDx=0;entryDy=0;" parent="O-xxoR6y4JepeyC2fcWW-403" edge="1">
          <mxGeometry relative="1" as="geometry">
            <mxPoint x="130" y="660" as="sourcePoint" />
          </mxGeometry>
        </mxCell>
        <mxCell id="O-xxoR6y4JepeyC2fcWW-406" value="Apakah anda ingin menyimpan" style="text;html=1;strokeColor=none;fillColor=none;align=center;verticalAlign=middle;whiteSpace=wrap;rounded=0;" parent="O-xxoR6y4JepeyC2fcWW-403" vertex="1">
          <mxGeometry y="30" width="190" height="30" as="geometry" />
        </mxCell>
        <mxCell id="O-xxoR6y4JepeyC2fcWW-407" value="Y/N" style="text;html=1;strokeColor=none;fillColor=none;align=center;verticalAlign=middle;whiteSpace=wrap;rounded=0;" parent="O-xxoR6y4JepeyC2fcWW-403" vertex="1">
          <mxGeometry y="60" width="190" height="30" as="geometry" />
        </mxCell>
        <mxCell id="O-xxoR6y4JepeyC2fcWW-411" value="Lihat Profil" style="swimlane;whiteSpace=wrap;html=1;startSize=23;" parent="xOamFbycdJBBgBO8ghrL-13" vertex="1">
          <mxGeometry x="1280" y="1240" width="190" height="90" as="geometry" />
        </mxCell>
        <mxCell id="O-xxoR6y4JepeyC2fcWW-412" style="edgeStyle=orthogonalEdgeStyle;rounded=0;orthogonalLoop=1;jettySize=auto;html=1;exitX=0.5;exitY=1;exitDx=0;exitDy=0;entryX=0.5;entryY=0;entryDx=0;entryDy=0;" parent="O-xxoR6y4JepeyC2fcWW-411" edge="1">
          <mxGeometry relative="1" as="geometry">
            <mxPoint x="130" y="110" as="targetPoint" />
          </mxGeometry>
        </mxCell>
        <mxCell id="O-xxoR6y4JepeyC2fcWW-413" style="edgeStyle=orthogonalEdgeStyle;rounded=0;orthogonalLoop=1;jettySize=auto;html=1;exitX=0.5;exitY=1;exitDx=0;exitDy=0;entryX=0.5;entryY=0;entryDx=0;entryDy=0;" parent="O-xxoR6y4JepeyC2fcWW-411" edge="1">
          <mxGeometry relative="1" as="geometry">
            <mxPoint x="130" y="660" as="sourcePoint" />
          </mxGeometry>
        </mxCell>
        <mxCell id="O-xxoR6y4JepeyC2fcWW-420" value="Apakah anda yakin untuk menghapus akun anda" style="text;html=1;strokeColor=none;fillColor=none;align=center;verticalAlign=middle;whiteSpace=wrap;rounded=0;" parent="O-xxoR6y4JepeyC2fcWW-411" vertex="1">
          <mxGeometry y="30" width="190" height="30" as="geometry" />
        </mxCell>
        <mxCell id="O-xxoR6y4JepeyC2fcWW-421" value="Y/N" style="text;html=1;strokeColor=none;fillColor=none;align=center;verticalAlign=middle;whiteSpace=wrap;rounded=0;" parent="O-xxoR6y4JepeyC2fcWW-411" vertex="1">
          <mxGeometry y="60" width="190" height="30" as="geometry" />
        </mxCell>
        <mxCell id="O-xxoR6y4JepeyC2fcWW-422" value="Lihat Profil" style="swimlane;whiteSpace=wrap;html=1;startSize=23;" parent="xOamFbycdJBBgBO8ghrL-13" vertex="1">
          <mxGeometry x="1520" y="1240" width="190" height="70" as="geometry" />
        </mxCell>
        <mxCell id="O-xxoR6y4JepeyC2fcWW-423" style="edgeStyle=orthogonalEdgeStyle;rounded=0;orthogonalLoop=1;jettySize=auto;html=1;exitX=0.5;exitY=1;exitDx=0;exitDy=0;entryX=0.5;entryY=0;entryDx=0;entryDy=0;" parent="O-xxoR6y4JepeyC2fcWW-422" edge="1">
          <mxGeometry relative="1" as="geometry">
            <mxPoint x="130" y="110" as="targetPoint" />
          </mxGeometry>
        </mxCell>
        <mxCell id="O-xxoR6y4JepeyC2fcWW-424" style="edgeStyle=orthogonalEdgeStyle;rounded=0;orthogonalLoop=1;jettySize=auto;html=1;exitX=0.5;exitY=1;exitDx=0;exitDy=0;entryX=0.5;entryY=0;entryDx=0;entryDy=0;" parent="O-xxoR6y4JepeyC2fcWW-422" edge="1">
          <mxGeometry relative="1" as="geometry">
            <mxPoint x="130" y="660" as="sourcePoint" />
          </mxGeometry>
        </mxCell>
        <mxCell id="O-xxoR6y4JepeyC2fcWW-425" value="Akun anda berhasil di hapus" style="text;html=1;strokeColor=none;fillColor=none;align=center;verticalAlign=middle;whiteSpace=wrap;rounded=0;" parent="O-xxoR6y4JepeyC2fcWW-422" vertex="1">
          <mxGeometry y="30" width="190" height="30" as="geometry" />
        </mxCell>
        <mxCell id="O-xxoR6y4JepeyC2fcWW-436" value="Lihat Riwayat Transaksi" style="swimlane;whiteSpace=wrap;html=1;startSize=23;" parent="xOamFbycdJBBgBO8ghrL-13" vertex="1">
          <mxGeometry x="800" y="1400" width="190" height="150" as="geometry" />
        </mxCell>
        <mxCell id="O-xxoR6y4JepeyC2fcWW-437" style="edgeStyle=orthogonalEdgeStyle;rounded=0;orthogonalLoop=1;jettySize=auto;html=1;exitX=0.5;exitY=1;exitDx=0;exitDy=0;entryX=0.5;entryY=0;entryDx=0;entryDy=0;" parent="O-xxoR6y4JepeyC2fcWW-436" edge="1">
          <mxGeometry relative="1" as="geometry">
            <mxPoint x="130" y="110" as="targetPoint" />
          </mxGeometry>
        </mxCell>
        <mxCell id="O-xxoR6y4JepeyC2fcWW-438" style="edgeStyle=orthogonalEdgeStyle;rounded=0;orthogonalLoop=1;jettySize=auto;html=1;exitX=0.5;exitY=1;exitDx=0;exitDy=0;entryX=0.5;entryY=0;entryDx=0;entryDy=0;" parent="O-xxoR6y4JepeyC2fcWW-436" edge="1">
          <mxGeometry relative="1" as="geometry">
            <mxPoint x="130" y="660" as="sourcePoint" />
          </mxGeometry>
        </mxCell>
        <mxCell id="O-xxoR6y4JepeyC2fcWW-439" value="1. Lihat Riwayat Top-Up" style="text;html=1;strokeColor=none;fillColor=none;align=center;verticalAlign=middle;whiteSpace=wrap;rounded=0;" parent="O-xxoR6y4JepeyC2fcWW-436" vertex="1">
          <mxGeometry y="30" width="190" height="30" as="geometry" />
        </mxCell>
        <mxCell id="O-xxoR6y4JepeyC2fcWW-443" value="2. Lihat Riwayat Transfer" style="text;html=1;strokeColor=none;fillColor=none;align=center;verticalAlign=middle;whiteSpace=wrap;rounded=0;" parent="O-xxoR6y4JepeyC2fcWW-436" vertex="1">
          <mxGeometry y="60" width="190" height="30" as="geometry" />
        </mxCell>
        <mxCell id="O-xxoR6y4JepeyC2fcWW-449" value="3. Kembali" style="text;html=1;strokeColor=none;fillColor=none;align=center;verticalAlign=middle;whiteSpace=wrap;rounded=0;" parent="O-xxoR6y4JepeyC2fcWW-436" vertex="1">
          <mxGeometry y="90" width="190" height="30" as="geometry" />
        </mxCell>
        <mxCell id="O-xxoR6y4JepeyC2fcWW-444" value="Lihat Riwayat Transaksi" style="swimlane;whiteSpace=wrap;html=1;startSize=23;" parent="xOamFbycdJBBgBO8ghrL-13" vertex="1">
          <mxGeometry x="1040" y="1400" width="190" height="230" as="geometry" />
        </mxCell>
        <mxCell id="O-xxoR6y4JepeyC2fcWW-445" style="edgeStyle=orthogonalEdgeStyle;rounded=0;orthogonalLoop=1;jettySize=auto;html=1;exitX=0.5;exitY=1;exitDx=0;exitDy=0;entryX=0.5;entryY=0;entryDx=0;entryDy=0;" parent="O-xxoR6y4JepeyC2fcWW-444" edge="1">
          <mxGeometry relative="1" as="geometry">
            <mxPoint x="130" y="110" as="targetPoint" />
          </mxGeometry>
        </mxCell>
        <mxCell id="O-xxoR6y4JepeyC2fcWW-446" style="edgeStyle=orthogonalEdgeStyle;rounded=0;orthogonalLoop=1;jettySize=auto;html=1;exitX=0.5;exitY=1;exitDx=0;exitDy=0;entryX=0.5;entryY=0;entryDx=0;entryDy=0;" parent="O-xxoR6y4JepeyC2fcWW-444" edge="1">
          <mxGeometry relative="1" as="geometry">
            <mxPoint x="130" y="660" as="sourcePoint" />
          </mxGeometry>
        </mxCell>
        <mxCell id="O-xxoR6y4JepeyC2fcWW-447" value="1. Top-up 1" style="text;html=1;strokeColor=none;fillColor=none;align=center;verticalAlign=middle;whiteSpace=wrap;rounded=0;" parent="O-xxoR6y4JepeyC2fcWW-444" vertex="1">
          <mxGeometry y="60" width="190" height="30" as="geometry" />
        </mxCell>
        <mxCell id="O-xxoR6y4JepeyC2fcWW-450" value="2. Top-up 2" style="text;html=1;strokeColor=none;fillColor=none;align=center;verticalAlign=middle;whiteSpace=wrap;rounded=0;" parent="O-xxoR6y4JepeyC2fcWW-444" vertex="1">
          <mxGeometry y="90" width="190" height="30" as="geometry" />
        </mxCell>
        <mxCell id="O-xxoR6y4JepeyC2fcWW-451" value="3. Top-up 3" style="text;html=1;strokeColor=none;fillColor=none;align=center;verticalAlign=middle;whiteSpace=wrap;rounded=0;" parent="O-xxoR6y4JepeyC2fcWW-444" vertex="1">
          <mxGeometry y="120" width="190" height="30" as="geometry" />
        </mxCell>
        <mxCell id="O-xxoR6y4JepeyC2fcWW-452" value="..." style="text;html=1;strokeColor=none;fillColor=none;align=center;verticalAlign=middle;whiteSpace=wrap;rounded=0;" parent="O-xxoR6y4JepeyC2fcWW-444" vertex="1">
          <mxGeometry y="150" width="190" height="30" as="geometry" />
        </mxCell>
        <mxCell id="O-xxoR6y4JepeyC2fcWW-453" value="n. top-up n" style="text;html=1;strokeColor=none;fillColor=none;align=center;verticalAlign=middle;whiteSpace=wrap;rounded=0;" parent="O-xxoR6y4JepeyC2fcWW-444" vertex="1">
          <mxGeometry y="180" width="190" height="30" as="geometry" />
        </mxCell>
        <mxCell id="O-xxoR6y4JepeyC2fcWW-454" value="0. Kembali" style="text;html=1;strokeColor=none;fillColor=none;align=center;verticalAlign=middle;whiteSpace=wrap;rounded=0;" parent="O-xxoR6y4JepeyC2fcWW-444" vertex="1">
          <mxGeometry y="30" width="190" height="30" as="geometry" />
        </mxCell>
        <mxCell id="O-xxoR6y4JepeyC2fcWW-461" value="Lihat Riwayat Transfer" style="swimlane;whiteSpace=wrap;html=1;startSize=23;" parent="xOamFbycdJBBgBO8ghrL-13" vertex="1">
          <mxGeometry x="1040" y="1680" width="190" height="230" as="geometry" />
        </mxCell>
        <mxCell id="O-xxoR6y4JepeyC2fcWW-462" style="edgeStyle=orthogonalEdgeStyle;rounded=0;orthogonalLoop=1;jettySize=auto;html=1;exitX=0.5;exitY=1;exitDx=0;exitDy=0;entryX=0.5;entryY=0;entryDx=0;entryDy=0;" parent="O-xxoR6y4JepeyC2fcWW-461" edge="1">
          <mxGeometry relative="1" as="geometry">
            <mxPoint x="130" y="110" as="targetPoint" />
          </mxGeometry>
        </mxCell>
        <mxCell id="O-xxoR6y4JepeyC2fcWW-463" style="edgeStyle=orthogonalEdgeStyle;rounded=0;orthogonalLoop=1;jettySize=auto;html=1;exitX=0.5;exitY=1;exitDx=0;exitDy=0;entryX=0.5;entryY=0;entryDx=0;entryDy=0;" parent="O-xxoR6y4JepeyC2fcWW-461" edge="1">
          <mxGeometry relative="1" as="geometry">
            <mxPoint x="130" y="660" as="sourcePoint" />
          </mxGeometry>
        </mxCell>
        <mxCell id="O-xxoR6y4JepeyC2fcWW-464" value="1. Transfer 1" style="text;html=1;strokeColor=none;fillColor=none;align=center;verticalAlign=middle;whiteSpace=wrap;rounded=0;" parent="O-xxoR6y4JepeyC2fcWW-461" vertex="1">
          <mxGeometry y="60" width="190" height="30" as="geometry" />
        </mxCell>
        <mxCell id="O-xxoR6y4JepeyC2fcWW-465" value="2. Transfer&amp;nbsp;2" style="text;html=1;strokeColor=none;fillColor=none;align=center;verticalAlign=middle;whiteSpace=wrap;rounded=0;" parent="O-xxoR6y4JepeyC2fcWW-461" vertex="1">
          <mxGeometry y="90" width="190" height="30" as="geometry" />
        </mxCell>
        <mxCell id="O-xxoR6y4JepeyC2fcWW-466" value="3. Transfer&amp;nbsp;3" style="text;html=1;strokeColor=none;fillColor=none;align=center;verticalAlign=middle;whiteSpace=wrap;rounded=0;" parent="O-xxoR6y4JepeyC2fcWW-461" vertex="1">
          <mxGeometry y="120" width="190" height="30" as="geometry" />
        </mxCell>
        <mxCell id="O-xxoR6y4JepeyC2fcWW-467" value="..." style="text;html=1;strokeColor=none;fillColor=none;align=center;verticalAlign=middle;whiteSpace=wrap;rounded=0;" parent="O-xxoR6y4JepeyC2fcWW-461" vertex="1">
          <mxGeometry y="150" width="190" height="30" as="geometry" />
        </mxCell>
        <mxCell id="O-xxoR6y4JepeyC2fcWW-468" value="n. Transfer&amp;nbsp;n" style="text;html=1;strokeColor=none;fillColor=none;align=center;verticalAlign=middle;whiteSpace=wrap;rounded=0;" parent="O-xxoR6y4JepeyC2fcWW-461" vertex="1">
          <mxGeometry y="180" width="190" height="30" as="geometry" />
        </mxCell>
        <mxCell id="O-xxoR6y4JepeyC2fcWW-469" value="0. Kembali" style="text;html=1;strokeColor=none;fillColor=none;align=center;verticalAlign=middle;whiteSpace=wrap;rounded=0;" parent="O-xxoR6y4JepeyC2fcWW-461" vertex="1">
          <mxGeometry y="30" width="190" height="30" as="geometry" />
        </mxCell>
      </root>
    </mxGraphModel>
  </diagram>
</mxfile>
